  0
SECTION
  2
HEADER
  9
$ACADVER
  1
AC1018
  9
$ACADMAINTVER
 70
     0
  9
$DWGCODEPAGE
  3
UNDEFINED
  9
$INSBASE
 10
0.0
 20
0.0
 30
0.0
  9
$EXTMIN
 10
1.000000000000000E+20
 20
1.000000000000000E+20
 30
1.000000000000000E+20
  9
$EXTMAX
 10
-1.000000000000000E+20
 20
-1.000000000000000E+20
 30
-1.000000000000000E+20
  9
$LIMMIN
 10
0.0
 20
0.0
  9
$LIMMAX
 10
12.0
 20
9.0
  9
$ORTHOMODE
 70
     0
  9
$REGENMODE
 70
     1
  9
$FILLMODE
 70
     1
  9
$QTEXTMODE
 70
     0
  9
$MIRRTEXT
 70
     1
  9
$LTSCALE
 40
1.0
  9
$ATTMODE
 70
     1
  9
$TEXTSIZE
 40
0.2
  9
$TRACEWID
 40
0.05
  9
$TEXTSTYLE
  7
Standard
  9
$CLAYER
  8
0
  9
$CELTYPE
  6
ByLayer
  9
$CECOLOR
 62
   256
  9
$CELTSCALE
 40
1.0
  9
$DISPSILH
 70
     0
  9
$DIMSCALE
 40
1.0
  9
$DIMASZ
 40
0.18
  9
$DIMEXO
 40
0.0625
  9
$DIMDLI
 40
0.38
  9
$DIMRND
 40
0.0
  9
$DIMDLE
 40
0.0
  9
$DIMEXE
 40
0.18
  9
$DIMTP
 40
0.0
  9
$DIMTM
 40
0.0
  9
$DIMTXT
 40
0.18
  9
$DIMCEN
 40
0.09
  9
$DIMTSZ
 40
0.0
  9
$DIMTOL
 70
     0
  9
$DIMLIM
 70
     0
  9
$DIMTIH
 70
     1
  9
$DIMTOH
 70
     1
  9
$DIMSE1
 70
     0
  9
$DIMSE2
 70
     0
  9
$DIMTAD
 70
     0
  9
$DIMZIN
 70
     0
  9
$DIMBLK
  1

  9
$DIMASO
 70
     1
  9
$DIMSHO
 70
     1
  9
$DIMPOST
  1

  9
$DIMAPOST
  1

  9
$DIMALT
 70
     0
  9
$DIMALTD
 70
     2
  9
$DIMALTF
 40
25.4
  9
$DIMLFAC
 40
1.0
  9
$DIMTOFL
 70
     0
  9
$DIMTVP
 40
0.0
  9
$DIMTIX
 70
     0
  9
$DIMSOXD
 70
     0
  9
$DIMSAH
 70
     0
  9
$DIMBLK1
  1

  9
$DIMBLK2
  1

  9
$DIMSTYLE
  2
Standard
  9
$DIMCLRD
 70
     0
  9
$DIMCLRE
 70
     0
  9
$DIMCLRT
 70
     0
  9
$DIMTFAC
 40
1.0
  9
$DIMGAP
 40
0.09
  9
$DIMJUST
 70
     0
  9
$DIMSD1
 70
     0
  9
$DIMSD2
 70
     0
  9
$DIMTOLJ
 70
     1
  9
$DIMTZIN
 70
     0
  9
$DIMALTZ
 70
     0
  9
$DIMALTTZ
 70
     0
  9
$DIMUPT
 70
     0
  9
$DIMDEC
 70
     4
  9
$DIMTDEC
 70
     4
  9
$DIMALTU
 70
     2
  9
$DIMALTTD
 70
     2
  9
$DIMTXSTY
  7
Standard
  9
$DIMAUNIT
 70
     0
  9
$DIMADEC
 70
     0
  9
$DIMALTRND
 40
0.0
  9
$DIMAZIN
 70
     0
  9
$DIMDSEP
 70
    46
  9
$DIMATFIT
 70
     3
  9
$DIMFRAC
 70
     0
  9
$DIMLDRBLK
  1

  9
$DIMLUNIT
 70
     2
  9
$DIMLWD
 70
    -2
  9
$DIMLWE
 70
    -2
  9
$DIMTMOVE
 70
     0
  9
$LUNITS
 70
     2
  9
$LUPREC
 70
     4
  9
$SKETCHINC
 40
0.1
  9
$FILLETRAD
 40
0.5
  9
$AUNITS
 70
     0
  9
$AUPREC
 70
     0
  9
$MENU
  1
.
  9
$ELEVATION
 40
0.0
  9
$PELEVATION
 40
0.0
  9
$THICKNESS
 40
0.0
  9
$LIMCHECK
 70
     0
  9
$CHAMFERA
 40
0.5
  9
$CHAMFERB
 40
0.5
  9
$CHAMFERC
 40
1.0
  9
$CHAMFERD
 40
0.0
  9
$SKPOLY
 70
     0
  9
$TDCREATE
 40
2457149.610879618
  9
$TDUCREATE
 40
2457149.569212963
  9
$TDUPDATE
 40
2457149.610891192
  9
$TDUUPDATE
 40
2457149.569224537
  9
$TDINDWG
 40
0.0000000116
  9
$TDUSRTIMER
 40
0.0000000116
  9
$USRTIMER
 70
     1
  9
$ANGBASE
 50
0.0
  9
$ANGDIR
 70
     0
  9
$PDMODE
 70
     0
  9
$PDSIZE
 40
0.0
  9
$PLINEWID
 40
0.0
  9
$SPLFRAME
 70
     0
  9
$SPLINETYPE
 70
     6
  9
$SPLINESEGS
 70
     8
  9
$HANDSEED
  5
D0
  9
$SURFTAB1
 70
     6
  9
$SURFTAB2
 70
     6
  9
$SURFTYPE
 70
     6
  9
$SURFU
 70
     6
  9
$SURFV
 70
     6
  9
$UCSBASE
  2

  9
$UCSNAME
  2

  9
$UCSORG
 10
0.0
 20
0.0
 30
0.0
  9
$UCSXDIR
 10
1.0
 20
0.0
 30
0.0
  9
$UCSYDIR
 10
0.0
 20
1.0
 30
0.0
  9
$UCSORTHOREF
  2

  9
$UCSORTHOVIEW
 70
     0
  9
$UCSORGTOP
 10
0.0
 20
0.0
 30
0.0
  9
$UCSORGBOTTOM
 10
0.0
 20
0.0
 30
0.0
  9
$UCSORGLEFT
 10
0.0
 20
0.0
 30
0.0
  9
$UCSORGRIGHT
 10
0.0
 20
0.0
 30
0.0
  9
$UCSORGFRONT
 10
0.0
 20
0.0
 30
0.0
  9
$UCSORGBACK
 10
0.0
 20
0.0
 30
0.0
  9
$PUCSBASE
  2

  9
$PUCSNAME
  2

  9
$PUCSORG
 10
0.0
 20
0.0
 30
0.0
  9
$PUCSXDIR
 10
1.0
 20
0.0
 30
0.0
  9
$PUCSYDIR
 10
0.0
 20
1.0
 30
0.0
  9
$PUCSORTHOREF
  2

  9
$PUCSORTHOVIEW
 70
     0
  9
$PUCSORGTOP
 10
0.0
 20
0.0
 30
0.0
  9
$PUCSORGBOTTOM
 10
0.0
 20
0.0
 30
0.0
  9
$PUCSORGLEFT
 10
0.0
 20
0.0
 30
0.0
  9
$PUCSORGRIGHT
 10
0.0
 20
0.0
 30
0.0
  9
$PUCSORGFRONT
 10
0.0
 20
0.0
 30
0.0
  9
$PUCSORGBACK
 10
0.0
 20
0.0
 30
0.0
  9
$USERI1
 70
     0
  9
$USERI2
 70
     0
  9
$USERI3
 70
     0
  9
$USERI4
 70
     0
  9
$USERI5
 70
     0
  9
$USERR1
 40
0.0
  9
$USERR2
 40
0.0
  9
$USERR3
 40
0.0
  9
$USERR4
 40
0.0
  9
$USERR5
 40
0.0
  9
$WORLDVIEW
 70
     1
  9
$SHADEDGE
 70
     3
  9
$SHADEDIF
 70
    70
  9
$TILEMODE
 70
     1
  9
$MAXACTVP
 70
    64
  9
$PINSBASE
 10
0.0
 20
0.0
 30
0.0
  9
$PLIMCHECK
 70
     0
  9
$PEXTMIN
 10
1.000000000000000E+20
 20
1.000000000000000E+20
 30
1.000000000000000E+20
  9
$PEXTMAX
 10
-1.000000000000000E+20
 20
-1.000000000000000E+20
 30
-1.000000000000000E+20
  9
$PLIMMIN
 10
0.0
 20
0.0
  9
$PLIMMAX
 10
12.0
 20
9.0
  9
$UNITMODE
 70
     0
  9
$VISRETAIN
 70
     1
  9
$PLINEGEN
 70
     0
  9
$PSLTSCALE
 70
     1
  9
$TREEDEPTH
 70
  3020
  9
$CMLSTYLE
  2
Standard
  9
$CMLJUST
 70
     0
  9
$CMLSCALE
 40
1.0
  9
$PROXYGRAPHICS
 70
     1
  9
$MEASUREMENT
 70
     0
  9
$CELWEIGHT
370
    -1
  9
$ENDCAPS
280
     0
  9
$JOINSTYLE
280
     0
  9
$LWDISPLAY
290
     1
  9
$INSUNITS
 70
     1
  9
$HYPERLINKBASE
  1

  9
$STYLESHEET
  1

  9
$XEDIT
290
     1
  9
$CEPSNTYPE
380
     0
  9
$PSTYLEMODE
290
     1
  9
$FINGERPRINTGUID
  2
{01FE1180-5E21-0E56-7E68-ED2D64155F89}
  9
$VERSIONGUID
  2
{FAEB1C32-E019-11D5-929B-00C0DF256EC4}
  9
$EXTNAMES
290
     1
  9
$PSVPSCALE
 40
0.0
  9
$OLESTARTUP
290
     0
  9
$SORTENTS
280
   127
  9
$INDEXCTL
280
     0
  9
$HIDETEXT
280
     1
  9
$XCLIPFRAME
290
     0
  9
$HALOGAP
280
     0
  9
$OBSCOLOR
 70
   257
  9
$OBSLTYPE
280
     0
  9
$INTERSECTIONDISPLAY
280
     0
  9
$INTERSECTIONCOLOR
 70
   257
  9
$DIMASSOC
280
     2
  9
$PROJECTNAME
  1

  0
ENDSEC
  0
SECTION
  2
CLASSES
  0
CLASS
  1
ACDBDICTIONARYWDFLT
  2
AcDbDictionaryWithDefault
  3
ObjectDBX Classes
 90
        0
 91
        4
280
     0
281
     0
  0
CLASS
  1
VISUALSTYLE
  2
AcDbVisualStyle
  3
ObjectDBX Classes
 90
     4095
 91
        4
280
     0
281
     0
  0
CLASS
  1
MATERIAL
  2
AcDbMaterial
  3
ObjectDBX Classes
 90
     1153
 91
        4
280
     0
281
     0
  0
CLASS
  1
SUN
  2
AcDbSun
  3
SCENEOE
 90
     1024
 91
        4
280
     0
281
     0
  0
CLASS
  1
IMAGEDEF
  2
AcDbRasterImageDef
  3
ISM
 90
        0
 91
        4
280
     0
281
     0
  0
CLASS
  1
RASTERVARIABLES
  2
AcDbRasterVariables
  3
ISM
 90
        0
 91
        4
280
     0
281
     0
  0
CLASS
  1
IMAGE
  2
AcDbRasterImage
  3
ISM
 90
      127
 91
        5
280
     0
281
     1
  0
CLASS
  1
IMAGEDEF_REACTOR
  2
AcDbRasterImageDefReactor
  3
ISM
 90
        1
 91
        4
280
     0
281
     0
  0
ENDSEC
  0
SECTION
  2
TABLES
  0
TABLE
  2
VPORT
  5
8
330
0
100
AcDbSymbolTable
 70
     1
  0
VPORT
  5
29
330
8
100
AcDbSymbolTableRecord
100
AcDbViewportTableRecord
  2
*Active
 70
     0
 10
0.0
 20
0.0
 11
1.0
 21
1.0
 12
0.0
 22
0.0
 13
0.0
 23
0.0
 14
0.5
 24
0.5
 15
0.5
 25
0.5
 16
0.0
 26
0.0
 36
1.0
 17
148.5000416295416
 27
-105.0007777515277
 37
0.0
 40
210.0015555030554
 41
1.414275634995294
 42
50.0
 43
0.0
 44
0.0
 50
0.0
 51
0.0
 71
     0
 72
   100
 73
     1
 74
     3
 75
     0
 76
     0
 77
     0
 78
     0
281
     0
 65
     1
110
0.0
120
0.0
130
0.0
111
1.0
121
0.0
131
0.0
112
0.0
122
1.0
132
0.0
 79
     0
146
0.0
  0
ENDTAB
  0
TABLE
  2
LTYPE
  5
5
330
0
100
AcDbSymbolTable
 70
     1
  0
LTYPE
  5
14
330
5
100
AcDbSymbolTableRecord
100
AcDbLinetypeTableRecord
  2
ByBlock
 70
     0
  3

 72
    65
 73
     0
 40
0.0
  0
LTYPE
  5
15
330
5
100
AcDbSymbolTableRecord
100
AcDbLinetypeTableRecord
  2
ByLayer
 70
     0
  3

 72
    65
 73
     0
 40
0.0
  0
LTYPE
  5
16
330
5
100
AcDbSymbolTableRecord
100
AcDbLinetypeTableRecord
  2
Continuous
 70
     0
  3
Solid line
 72
    65
 73
     0
 40
0.0
  0
ENDTAB
  0
TABLE
  2
LAYER
  5
2
330
0
100
AcDbSymbolTable
 70
     2
  0
LAYER
  5
10
330
2
100
AcDbSymbolTableRecord
100
AcDbLayerTableRecord
  2
0
 70
     0
 62
     7
  6
Continuous
370
    -3
390
F
  0
LAYER
  5
40
330
2
100
AcDbSymbolTableRecord
100
AcDbLayerTableRecord
  2
Livello 1
 70
     0
 62
     7
  6
Continuous
370
    -3
390
F
  0
ENDTAB
  0
TABLE
  2
STYLE
  5
3
330
0
100
AcDbSymbolTable
 70
     1
  0
STYLE
  5
11
330
3
100
AcDbSymbolTableRecord
100
AcDbTextStyleTableRecord
  2
Standard
 70
     0
 40
0.0
 41
1.0
 50
0.0
 71
     0
 42
0.2
  3
txt
  4

  0
ENDTAB
  0
TABLE
  2
VIEW
  5
6
330
0
100
AcDbSymbolTable
 70
     0
  0
ENDTAB
  0
TABLE
  2
UCS
  5
7
330
0
100
AcDbSymbolTable
 70
     0
  0
ENDTAB
  0
TABLE
  2
APPID
  5
9
330
0
100
AcDbSymbolTable
 70
     1
  0
APPID
  5
12
330
9
100
AcDbSymbolTableRecord
100
AcDbRegAppTableRecord
  2
ACAD
 70
     0
  0
ENDTAB
  0
TABLE
  2
DIMSTYLE
  5
A
330
0
100
AcDbSymbolTable
 70
     1
100
AcDbDimStyleTable
  0
DIMSTYLE
105
27
330
A
100
AcDbSymbolTableRecord
100
AcDbDimStyleTableRecord
  2
Standard
 70
     0
178
     0
340
11
  0
ENDTAB
  0
TABLE
  2
BLOCK_RECORD
  5
1
330
0
100
AcDbSymbolTable
 70
     2
  0
BLOCK_RECORD
  5
1F
330
1
100
AcDbSymbolTableRecord
100
AcDbBlockTableRecord
  2
*Model_Space
340
22
  0
BLOCK_RECORD
  5
1B
330
1
100
AcDbSymbolTableRecord
100
AcDbBlockTableRecord
  2
*Paper_Space
340
1E
  0
BLOCK_RECORD
  5
23
330
1
100
AcDbSymbolTableRecord
100
AcDbBlockTableRecord
  2
*Paper_Space0
340
26
  0
BLOCK_RECORD
  5
41
330
1
100
AcDbSymbolTableRecord
100
AcDbBlockTableRecord
  2
block 2
340
0
102
{BLKREFS
331
42
102
}
  0
ENDTAB
  0
ENDSEC
  0
SECTION
  2
BLOCKS
  0
BLOCK
  5
20
330
1F
100
AcDbEntity
  8
0
100
AcDbBlockBegin
  2
*Model_Space
 70
     0
 10
0.0
 20
0.0
 30
0.0
  3
*Model_Space
  1

  0
ENDBLK
  5
21
330
1F
100
AcDbEntity
  8
0
100
AcDbBlockEnd
  0
BLOCK
  5
1C
330
1B
100
AcDbEntity
 67
     1
  8
0
100
AcDbBlockBegin
  2
*Paper_Space
 70
     0
 10
0.0
 20
0.0
 30
0.0
  3
*Paper_Space
  1

  0
ENDBLK
  5
1D
330
1B
100
AcDbEntity
 67
     1
  8
0
100
AcDbBlockEnd
  0
BLOCK
  5
24
330
23
100
AcDbEntity
  8
0
100
AcDbBlockBegin
  2
*Paper_Space0
 70
     0
 10
0.0
 20
0.0
 30
0.0
  3
*Paper_Space0
  1

  0
ENDBLK
  5
25
330
23
100
AcDbEntity
  8
0
100
AcDbBlockEnd
  0
BLOCK
  5
43
330
41
100
AcDbEntity
  8
0
100
AcDbBlockBegin
  2
block 2
 70
     0
 10
0.0
 20
0.0
 30
0.0
  3
block 2
  1

  0
SPLINE
  5
45
330
41
100
AcDbEntity
  8
Livello 1
370
     0
100
AcDbSpline
210
0.0
220
0.0
230
1.0
 70
    11
 71
     3
 72
    53
 73
    49
 74
     0
 42
0.0000000001
 43
0.0000000001
 12
1.0
 22
0.0
 32
0.0
 13
1.0
 23
0.0
 33
0.0
 40
0.0
 40
0.0
 40
0.0
 40
0.0
 40
1.0
 40
1.0
 40
1.0
 40
2.0
 40
2.0
 40
2.0
 40
3.0
 40
3.0
 40
3.0
 40
4.0
 40
4.0
 40
4.0
 40
5.0
 40
5.0
 40
5.0
 40
6.0
 40
6.0
 40
6.0
 40
7.0
 40
7.0
 40
7.0
 40
8.0
 40
8.0
 40
8.0
 40
9.0
 40
9.0
 40
9.0
 40
10.0
 40
10.0
 40
10.0
 40
11.0
 40
11.0
 40
11.0
 40
12.0
 40
12.0
 40
12.0
 40
13.0
 40
13.0
 40
13.0
 40
14.0
 40
14.0
 40
14.0
 40
15.0
 40
15.0
 40
15.0
 40
16.0
 40
16.0
 40
16.0
 40
16.0
 10
103.2888423025673
 20
-87.01587720081956
 30
0.0
 10
106.0068503856551
 20
-87.01587720081956
 30
0.0
 10
107.4040088596982
 20
-88.64161776030896
 30
0.0
 10
107.4040088596982
 20
-91.48657761202828
 30
0.0
 10
107.4040088596982
 20
-91.48657761202828
 30
0.0
 10
107.4040088596982
 20
-92.0453720997358
 30
0.0
 10
107.4040088596982
 20
-92.0453720997358
 30
0.0
 10
107.4040088596982
 20
-92.0453720997358
 30
0.0
 10
104.7621373868344
 20
-92.0453720997358
 30
0.0
 10
104.7621373868344
 20
-92.0453720997358
 30
0.0
 10
104.7621373868344
 20
-92.0453720997358
 30
0.0
 10
104.7621373868344
 20
-91.30881068498938
 30
0.0
 10
104.7621373868344
 20
-91.30881068498938
 30
0.0
 10
104.7621373868344
 20
-90.03860397957777
 30
0.0
 10
104.2541580575343
 20
-89.55594610209427
 30
0.0
 10
103.3651511675656
 20
-89.55594610209427
 30
0.0
 10
102.4759720228226
 20
-89.55594610209427
 30
0.0
 10
101.9679926935225
 20
-90.03860397957777
 30
0.0
 10
101.9679926935225
 20
-91.30881068498938
 30
0.0
 10
101.9679926935225
 20
-94.96681307122766
 30
0.0
 10
107.4295025662891
 20
-95.6527315823409
 30
0.0
 10
107.4295025662891
 20
-100.7332138944388
 30
0.0
 10
107.4295025662891
 20
-103.5781737461582
 30
0.0
 10
106.0068503856551
 20
-105.2039143056476
 30
0.0
 10
103.2635208507507
 20
-105.2039143056476
 30
0.0
 10
100.520019061072
 20
-105.2039143056476
 30
0.0
 10
99.09753913521233
 20
-103.5781737461582
 30
0.0
 10
99.09753913521233
 20
-100.7332138944388
 30
0.0
 10
99.09753913521233
 20
-100.7332138944388
 30
0.0
 10
99.09753913521233
 20
-99.64077411606611
 30
0.0
 10
99.09753913521233
 20
-99.64077411606611
 30
0.0
 10
99.09753913521233
 20
-99.64077411606611
 30
0.0
 10
101.7394106080762
 20
-99.64077411606611
 30
0.0
 10
101.7394106080762
 20
-99.64077411606611
 30
0.0
 10
101.7394106080762
 20
-99.64077411606611
 30
0.0
 10
101.7394106080762
 20
-100.9109808214777
 30
0.0
 10
101.7394106080762
 20
-100.9109808214777
 30
0.0
 10
101.7394106080762
 20
-102.1808430173408
 30
0.0
 10
102.2982050957837
 20
-102.638351697782
 30
0.0
 10
103.1872119857524
 20
-102.638351697782
 30
0.0
 10
104.0763911304954
 20
-102.638351697782
 30
0.0
 10
104.6351856182029
 20
-102.1808430173408
 30
0.0
 10
104.6351856182029
 20
-100.9109808214777
 30
0.0
 10
104.6351856182029
 20
-97.25297843523946
 30
0.0
 10
99.17367574543636
 20
-96.56705992412621
 30
0.0
 10
99.17367574543636
 20
-91.48657761202828
 30
0.0
 10
99.17367574543636
 20
-88.64161776030896
 30
0.0
 10
100.5708342194794
 20
-87.01587720081956
 30
0.0
 10
103.2888423025673
 20
-87.01587720081956
 30
0.0
  0
HATCH
  5
46
330
41
100
AcDbEntity
  8
Livello 1
 62
   250
100
AcDbHatch
 10
0.0
 20
0.0
 30
0.0
210
0.0
220
0.0
230
1.0
  2
SOLID
 70
     1
 71
     0
 91
        1
 92
        1
 93
        1
 72
     4
 94
        3
 73
     0
 74
     1
 95
       53
 96
       49
 40
0.0
 40
0.0
 40
0.0
 40
0.0
 40
1.0
 40
1.0
 40
1.0
 40
2.0
 40
2.0
 40
2.0
 40
3.0
 40
3.0
 40
3.0
 40
4.0
 40
4.0
 40
4.0
 40
5.0
 40
5.0
 40
5.0
 40
6.0
 40
6.0
 40
6.0
 40
7.0
 40
7.0
 40
7.0
 40
8.0
 40
8.0
 40
8.0
 40
9.0
 40
9.0
 40
9.0
 40
10.0
 40
10.0
 40
10.0
 40
11.0
 40
11.0
 40
11.0
 40
12.0
 40
12.0
 40
12.0
 40
13.0
 40
13.0
 40
13.0
 40
14.0
 40
14.0
 40
14.0
 40
15.0
 40
15.0
 40
15.0
 40
16.0
 40
16.0
 40
16.0
 40
16.0
 10
103.2888423025673
 20
-87.01587720081956
 10
106.0068503856551
 20
-87.01587720081956
 10
107.4040088596982
 20
-88.64161776030896
 10
107.4040088596982
 20
-91.48657761202828
 10
107.4040088596982
 20
-91.48657761202828
 10
107.4040088596982
 20
-92.0453720997358
 10
107.4040088596982
 20
-92.0453720997358
 10
107.4040088596982
 20
-92.0453720997358
 10
104.7621373868344
 20
-92.0453720997358
 10
104.7621373868344
 20
-92.0453720997358
 10
104.7621373868344
 20
-92.0453720997358
 10
104.7621373868344
 20
-91.30881068498938
 10
104.7621373868344
 20
-91.30881068498938
 10
104.7621373868344
 20
-90.03860397957777
 10
104.2541580575343
 20
-89.55594610209427
 10
103.3651511675656
 20
-89.55594610209427
 10
102.4759720228226
 20
-89.55594610209427
 10
101.9679926935225
 20
-90.03860397957777
 10
101.9679926935225
 20
-91.30881068498938
 10
101.9679926935225
 20
-94.96681307122766
 10
107.4295025662891
 20
-95.6527315823409
 10
107.4295025662891
 20
-100.7332138944388
 10
107.4295025662891
 20
-103.5781737461582
 10
106.0068503856551
 20
-105.2039143056476
 10
103.2635208507507
 20
-105.2039143056476
 10
100.520019061072
 20
-105.2039143056476
 10
99.09753913521233
 20
-103.5781737461582
 10
99.09753913521233
 20
-100.7332138944388
 10
99.09753913521233
 20
-100.7332138944388
 10
99.09753913521233
 20
-99.64077411606611
 10
99.09753913521233
 20
-99.64077411606611
 10
99.09753913521233
 20
-99.64077411606611
 10
101.7394106080762
 20
-99.64077411606611
 10
101.7394106080762
 20
-99.64077411606611
 10
101.7394106080762
 20
-99.64077411606611
 10
101.7394106080762
 20
-100.9109808214777
 10
101.7394106080762
 20
-100.9109808214777
 10
101.7394106080762
 20
-102.1808430173408
 10
102.2982050957837
 20
-102.638351697782
 10
103.1872119857524
 20
-102.638351697782
 10
104.0763911304954
 20
-102.638351697782
 10
104.6351856182029
 20
-102.1808430173408
 10
104.6351856182029
 20
-100.9109808214777
 10
104.6351856182029
 20
-97.25297843523946
 10
99.17367574543636
 20
-96.56705992412621
 10
99.17367574543636
 20
-91.48657761202828
 10
99.17367574543636
 20
-88.64161776030896
 10
100.5708342194794
 20
-87.01587720081956
 10
103.2888423025673
 20
-87.01587720081956
 97
        0
 75
     2
 76
     1
 98
        0
  0
POLYLINE
  5
47
330
41
100
AcDbEntity
  8
Livello 1
370
     0
100
AcDb2dPolyline
 66
     1
 10
0.0
 20
0.0
 30
0.0
  0
VERTEX
  5
48
330
47
100
AcDbEntity
  8
Livello 1
370
     0
100
AcDbVertex
100
AcDb2dVertex
 10
114.9473899342013
 20
-99.84403474969587
 30
0.0
  0
VERTEX
  5
49
330
47
100
AcDbEntity
  8
Livello 1
370
     0
100
AcDbVertex
100
AcDb2dVertex
 10
116.8525277375444
 20
-87.2191378344493
 30
0.0
  0
VERTEX
  5
4A
330
47
100
AcDbEntity
  8
Livello 1
370
     0
100
AcDbVertex
100
AcDb2dVertex
 10
120.739112209229
 20
-87.2191378344493
 30
0.0
  0
VERTEX
  5
4B
330
47
100
AcDbEntity
  8
Livello 1
370
     0
100
AcDbVertex
100
AcDb2dVertex
 10
120.739112209229
 20
-105.0006536720178
 30
0.0
  0
VERTEX
  5
4C
330
47
100
AcDbEntity
  8
Livello 1
370
     0
100
AcDbVertex
100
AcDb2dVertex
 10
118.0972407363652
 20
-105.0006536720178
 30
0.0
  0
VERTEX
  5
4D
330
47
100
AcDbEntity
  8
Livello 1
370
     0
100
AcDbVertex
100
AcDb2dVertex
 10
118.0972407363652
 20
-92.24863273336554
 30
0.0
  0
VERTEX
  5
4E
330
47
100
AcDbEntity
  8
Livello 1
370
     0
100
AcDbVertex
100
AcDb2dVertex
 10
116.1666092264312
 20
-105.0006536720178
 30
0.0
  0
VERTEX
  5
4F
330
47
100
AcDbEntity
  8
Livello 1
370
     0
100
AcDbVertex
100
AcDb2dVertex
 10
113.5249100083416
 20
-105.0006536720178
 30
0.0
  0
VERTEX
  5
50
330
47
100
AcDbEntity
  8
Livello 1
370
     0
100
AcDbVertex
100
AcDb2dVertex
 10
111.4418330231853
 20
-92.42639966040443
 30
0.0
  0
VERTEX
  5
51
330
47
100
AcDbEntity
  8
Livello 1
370
     0
100
AcDbVertex
100
AcDb2dVertex
 10
111.4418330231853
 20
-105.0006536720178
 30
0.0
  0
VERTEX
  5
52
330
47
100
AcDbEntity
  8
Livello 1
370
     0
100
AcDbVertex
100
AcDb2dVertex
 10
109.0032221839512
 20
-105.0006536720178
 30
0.0
  0
VERTEX
  5
53
330
47
100
AcDbEntity
  8
Livello 1
370
     0
100
AcDbVertex
100
AcDb2dVertex
 10
109.0032221839512
 20
-87.2191378344493
 30
0.0
  0
VERTEX
  5
54
330
47
100
AcDbEntity
  8
Livello 1
370
     0
100
AcDbVertex
100
AcDb2dVertex
 10
112.8898066556358
 20
-87.2191378344493
 30
0.0
  0
VERTEX
  5
55
330
47
100
AcDbEntity
  8
Livello 1
370
     0
100
AcDbVertex
100
AcDb2dVertex
 10
114.9473899342013
 20
-99.84403474969587
 30
0.0
  0
SEQEND
  5
56
330
47
100
AcDbEntity
  8
Livello 1
370
     0
  0
HATCH
  5
57
330
41
100
AcDbEntity
  8
Livello 1
 62
   250
100
AcDbHatch
 10
0.0
 20
0.0
 30
0.0
210
0.0
220
0.0
230
1.0
  2
SOLID
 70
     1
 71
     0
 91
        1
 92
        1
 93
       13
 72
     1
 10
114.9473899342013
 20
-99.84403474969587
 11
116.8525277375444
 21
-87.2191378344493
 72
     1
 10
116.8525277375444
 20
-87.2191378344493
 11
120.739112209229
 21
-87.2191378344493
 72
     1
 10
120.739112209229
 20
-87.2191378344493
 11
120.739112209229
 21
-105.0006536720178
 72
     1
 10
120.739112209229
 20
-105.0006536720178
 11
118.0972407363652
 21
-105.0006536720178
 72
     1
 10
118.0972407363652
 20
-105.0006536720178
 11
118.0972407363652
 21
-92.24863273336554
 72
     1
 10
118.0972407363652
 20
-92.24863273336554
 11
116.1666092264312
 21
-105.0006536720178
 72
     1
 10
116.1666092264312
 20
-105.0006536720178
 11
113.5249100083416
 21
-105.0006536720178
 72
     1
 10
113.5249100083416
 20
-105.0006536720178
 11
111.4418330231853
 21
-92.42639966040443
 72
     1
 10
111.4418330231853
 20
-92.42639966040443
 11
111.4418330231853
 21
-105.0006536720178
 72
     1
 10
111.4418330231853
 20
-105.0006536720178
 11
109.0032221839512
 21
-105.0006536720178
 72
     1
 10
109.0032221839512
 20
-105.0006536720178
 11
109.0032221839512
 21
-87.2191378344493
 72
     1
 10
109.0032221839512
 20
-87.2191378344493
 11
112.8898066556358
 21
-87.2191378344493
 72
     1
 10
112.8898066556358
 20
-87.2191378344493
 11
114.9473899342013
 21
-99.84403474969587
 97
        0
 75
     2
 76
     1
 98
        0
  0
POLYLINE
  5
58
330
41
100
AcDbEntity
  8
Livello 1
370
     0
100
AcDb2dPolyline
 66
     1
 10
0.0
 20
0.0
 30
0.0
  0
VERTEX
  5
59
330
58
100
AcDbEntity
  8
Livello 1
370
     0
100
AcDbVertex
100
AcDb2dVertex
 10
131.8130271370161
 20
-105.0006536720178
 30
0.0
  0
VERTEX
  5
5A
330
58
100
AcDbEntity
  8
Livello 1
370
     0
100
AcDbVertex
100
AcDb2dVertex
 10
128.9932164823391
 20
-105.0006536720178
 30
0.0
  0
VERTEX
  5
5B
330
58
100
AcDbEntity
  8
Livello 1
370
     0
100
AcDbVertex
100
AcDb2dVertex
 10
128.5105586048556
 20
-101.7746662596299
 30
0.0
  0
VERTEX
  5
5C
330
58
100
AcDbEntity
  8
Livello 1
370
     0
100
AcDbVertex
100
AcDb2dVertex
 10
125.0813105588379
 20
-101.7746662596299
 30
0.0
  0
VERTEX
  5
5D
330
58
100
AcDbEntity
  8
Livello 1
370
     0
100
AcDbVertex
100
AcDb2dVertex
 10
124.5986526813544
 20
-105.0006536720178
 30
0.0
  0
VERTEX
  5
5E
330
58
100
AcDbEntity
  8
Livello 1
370
     0
100
AcDbVertex
100
AcDb2dVertex
 10
122.0330900734889
 20
-105.0006536720178
 30
0.0
  0
VERTEX
  5
5F
330
58
100
AcDbEntity
  8
Livello 1
370
     0
100
AcDbVertex
100
AcDb2dVertex
 10
124.8782221799824
 20
-87.2191378344493
 30
0.0
  0
VERTEX
  5
60
330
58
100
AcDbEntity
  8
Livello 1
370
     0
100
AcDbVertex
100
AcDb2dVertex
 10
128.9677227757483
 20
-87.2191378344493
 30
0.0
  0
VERTEX
  5
61
330
58
100
AcDbEntity
  8
Livello 1
370
     0
100
AcDbVertex
100
AcDb2dVertex
 10
131.8130271370161
 20
-105.0006536720178
 30
0.0
  0
SEQEND
  5
62
330
58
100
AcDbEntity
  8
Livello 1
370
     0
  0
POLYLINE
  5
63
330
41
100
AcDbEntity
  8
Livello 1
370
     0
100
AcDb2dPolyline
 66
     1
 10
0.0
 20
0.0
 30
0.0
  0
VERTEX
  5
64
330
63
100
AcDbEntity
  8
Livello 1
370
     0
100
AcDbVertex
100
AcDb2dVertex
 10
125.43701666769
 20
-99.36137687221236
 30
0.0
  0
VERTEX
  5
65
330
63
100
AcDbEntity
  8
Livello 1
370
     0
100
AcDbVertex
100
AcDb2dVertex
 10
128.129531044187
 20
-99.36137687221236
 30
0.0
  0
VERTEX
  5
66
330
63
100
AcDbEntity
  8
Livello 1
370
     0
100
AcDbVertex
100
AcDb2dVertex
 10
126.7831877285513
 20
-90.36898863661322
 30
0.0
  0
VERTEX
  5
67
330
63
100
AcDbEntity
  8
Livello 1
370
     0
100
AcDbVertex
100
AcDb2dVertex
 10
125.43701666769
 20
-99.36137687221236
 30
0.0
  0
SEQEND
  5
68
330
63
100
AcDbEntity
  8
Livello 1
370
     0
  0
HATCH
  5
69
330
41
100
AcDbEntity
  8
Livello 1
 62
   250
100
AcDbHatch
 10
0.0
 20
0.0
 30
0.0
210
0.0
220
0.0
230
1.0
  2
SOLID
 70
     1
 71
     0
 91
        2
 92
        1
 93
        8
 72
     1
 10
131.8130271370161
 20
-105.0006536720178
 11
128.9932164823391
 21
-105.0006536720178
 72
     1
 10
128.9932164823391
 20
-105.0006536720178
 11
128.5105586048556
 21
-101.7746662596299
 72
     1
 10
128.5105586048556
 20
-101.7746662596299
 11
125.0813105588379
 21
-101.7746662596299
 72
     1
 10
125.0813105588379
 20
-101.7746662596299
 11
124.5986526813544
 21
-105.0006536720178
 72
     1
 10
124.5986526813544
 20
-105.0006536720178
 11
122.0330900734889
 21
-105.0006536720178
 72
     1
 10
122.0330900734889
 20
-105.0006536720178
 11
124.8782221799824
 21
-87.2191378344493
 72
     1
 10
124.8782221799824
 20
-87.2191378344493
 11
128.9677227757483
 21
-87.2191378344493
 72
     1
 10
128.9677227757483
 20
-87.2191378344493
 11
131.8130271370161
 21
-105.0006536720178
 97
        0
 92
        1
 93
        3
 72
     1
 10
125.43701666769
 20
-99.36137687221236
 11
128.129531044187
 21
-99.36137687221236
 72
     1
 10
128.129531044187
 20
-99.36137687221236
 11
126.7831877285513
 21
-90.36898863661322
 72
     1
 10
126.7831877285513
 20
-90.36898863661322
 11
125.43701666769
 21
-99.36137687221236
 97
        0
 75
     2
 76
     1
 98
        0
  0
SPLINE
  5
6A
330
41
100
AcDbEntity
  8
Livello 1
370
     0
100
AcDbSpline
210
0.0
220
0.0
230
1.0
 70
    11
 71
     3
 72
    50
 73
    46
 74
     0
 42
0.0000000001
 43
0.0000000001
 12
1.0
 22
0.0
 32
0.0
 13
1.0
 23
0.0
 33
0.0
 40
0.0
 40
0.0
 40
0.0
 40
0.0
 40
1.0
 40
1.0
 40
1.0
 40
2.0
 40
2.0
 40
2.0
 40
3.0
 40
3.0
 40
3.0
 40
4.0
 40
4.0
 40
4.0
 40
5.0
 40
5.0
 40
5.0
 40
6.0
 40
6.0
 40
6.0
 40
7.0
 40
7.0
 40
7.0
 40
8.0
 40
8.0
 40
8.0
 40
9.0
 40
9.0
 40
9.0
 40
10.0
 40
10.0
 40
10.0
 40
11.0
 40
11.0
 40
11.0
 40
12.0
 40
12.0
 40
12.0
 40
13.0
 40
13.0
 40
13.0
 40
14.0
 40
14.0
 40
14.0
 40
15.0
 40
15.0
 40
15.0
 40
15.0
 10
138.9498869442596
 20
-105.0006536720178
 30
0.0
 10
138.7976137238116
 20
-104.5434895011252
 30
0.0
 10
138.6959834069968
 20
-104.2640922572714
 30
0.0
 10
138.6959834069968
 20
-102.8161186248209
 30
0.0
 10
138.6959834069968
 20
-102.8161186248209
 30
0.0
 10
138.6959834069968
 20
-100.0218016767348
 30
0.0
 10
138.6959834069968
 20
-100.0218016767348
 30
0.0
 10
138.6959834069968
 20
-98.3705674106545
 30
0.0
 10
138.1371889192892
 20
-97.76113001931381
 30
0.0
 10
136.8669822138776
 20
-97.76113001931381
 30
0.0
 10
136.8669822138776
 20
-97.76113001931381
 30
0.0
 10
135.9016664589106
 20
-97.76113001931381
 30
0.0
 10
135.9016664589106
 20
-97.76113001931381
 30
0.0
 10
135.9016664589106
 20
-97.76113001931381
 30
0.0
 10
135.9016664589106
 20
-105.0006536720178
 30
0.0
 10
135.9016664589106
 20
-105.0006536720178
 30
0.0
 10
135.9016664589106
 20
-105.0006536720178
 30
0.0
 10
133.1073495108245
 20
-105.0006536720178
 30
0.0
 10
133.1073495108245
 20
-105.0006536720178
 30
0.0
 10
133.1073495108245
 20
-105.0006536720178
 30
0.0
 10
133.1073495108245
 20
-87.2191378344493
 30
0.0
 10
133.1073495108245
 20
-87.2191378344493
 30
0.0
 10
133.1073495108245
 20
-87.2191378344493
 30
0.0
 10
137.3241463847703
 20
-87.2191378344493
 30
0.0
 10
137.3241463847703
 20
-87.2191378344493
 30
0.0
 10
140.2200936496713
 20
-87.2191378344493
 30
0.0
 10
141.464806648492
 20
-88.56548115008493
 30
0.0
 10
141.464806648492
 20
-91.30881068498938
 30
0.0
 10
141.464806648492
 20
-91.30881068498938
 30
0.0
 10
141.464806648492
 20
-92.70614141380672
 30
0.0
 10
141.464806648492
 20
-92.70614141380672
 30
0.0
 10
141.464806648492
 20
-94.53479809737733
 30
0.0
 10
140.8805184541937
 20
-95.72886819256493
 30
0.0
 10
139.6358054553729
 20
-96.3131563868633
 30
0.0
 10
141.0327916746417
 20
-96.89744458116168
 30
0.0
 10
141.4899558455344
 20
-98.24378789679731
 30
0.0
 10
141.4899558455344
 20
-100.0979382869588
 30
0.0
 10
141.4899558455344
 20
-100.0979382869588
 30
0.0
 10
141.4899558455344
 20
-102.8416123314117
 30
0.0
 10
141.4899558455344
 20
-102.8416123314117
 30
0.0
 10
141.4899558455344
 20
-103.7052977695639
 30
0.0
 10
141.5154495521252
 20
-104.3402288674954
 30
0.0
 10
141.794846795979
 20
-105.0006536720178
 30
0.0
 10
141.794846795979
 20
-105.0006536720178
 30
0.0
 10
138.9498869442596
 20
-105.0006536720178
 30
0.0
 10
138.9498869442596
 20
-105.0006536720178
 30
0.0
  0
SPLINE
  5
6B
330
41
100
AcDbEntity
  8
Livello 1
370
     0
100
AcDbSpline
210
0.0
220
0.0
230
1.0
 70
    11
 71
     3
 72
    23
 73
    19
 74
     0
 42
0.0000000001
 43
0.0000000001
 12
1.0
 22
0.0
 32
0.0
 13
1.0
 23
0.0
 33
0.0
 40
0.0
 40
0.0
 40
0.0
 40
0.0
 40
1.0
 40
1.0
 40
1.0
 40
2.0
 40
2.0
 40
2.0
 40
3.0
 40
3.0
 40
3.0
 40
4.0
 40
4.0
 40
4.0
 40
5.0
 40
5.0
 40
5.0
 40
6.0
 40
6.0
 40
6.0
 40
6.0
 10
135.9016664589106
 20
-89.759206735724
 30
0.0
 10
135.9016664589106
 20
-89.759206735724
 30
0.0
 10
135.9016664589106
 20
-95.22071660849058
 30
0.0
 10
135.9016664589106
 20
-95.22071660849058
 30
0.0
 10
135.9016664589106
 20
-95.22071660849058
 30
0.0
 10
136.9937617277348
 20
-95.22071660849058
 30
0.0
 10
136.9937617277348
 20
-95.22071660849058
 30
0.0
 10
138.0355586024743
 20
-95.22071660849058
 30
0.0
 10
138.6704897004059
 20
-94.76355243759792
 30
0.0
 10
138.6704897004059
 20
-93.34107251173826
 30
0.0
 10
138.6704897004059
 20
-93.34107251173826
 30
0.0
 10
138.6704897004059
 20
-91.58820792884315
 30
0.0
 10
138.6704897004059
 20
-91.58820792884315
 30
0.0
 10
138.6704897004059
 20
-90.31834573298006
 30
0.0
 10
138.2384747265556
 20
-89.759206735724
 30
0.0
 10
137.2480097745462
 20
-89.759206735724
 30
0.0
 10
137.2480097745462
 20
-89.759206735724
 30
0.0
 10
135.9016664589106
 20
-89.759206735724
 30
0.0
 10
135.9016664589106
 20
-89.759206735724
 30
0.0
  0
HATCH
  5
6C
330
41
100
AcDbEntity
  8
Livello 1
 62
   250
100
AcDbHatch
 10
0.0
 20
0.0
 30
0.0
210
0.0
220
0.0
230
1.0
  2
SOLID
 70
     1
 71
     0
 91
        2
 92
        1
 93
        1
 72
     4
 94
        3
 73
     0
 74
     1
 95
       50
 96
       46
 40
0.0
 40
0.0
 40
0.0
 40
0.0
 40
1.0
 40
1.0
 40
1.0
 40
2.0
 40
2.0
 40
2.0
 40
3.0
 40
3.0
 40
3.0
 40
4.0
 40
4.0
 40
4.0
 40
5.0
 40
5.0
 40
5.0
 40
6.0
 40
6.0
 40
6.0
 40
7.0
 40
7.0
 40
7.0
 40
8.0
 40
8.0
 40
8.0
 40
9.0
 40
9.0
 40
9.0
 40
10.0
 40
10.0
 40
10.0
 40
11.0
 40
11.0
 40
11.0
 40
12.0
 40
12.0
 40
12.0
 40
13.0
 40
13.0
 40
13.0
 40
14.0
 40
14.0
 40
14.0
 40
15.0
 40
15.0
 40
15.0
 40
15.0
 10
138.9498869442596
 20
-105.0006536720178
 10
138.7976137238116
 20
-104.5434895011252
 10
138.6959834069968
 20
-104.2640922572714
 10
138.6959834069968
 20
-102.8161186248209
 10
138.6959834069968
 20
-102.8161186248209
 10
138.6959834069968
 20
-100.0218016767348
 10
138.6959834069968
 20
-100.0218016767348
 10
138.6959834069968
 20
-98.3705674106545
 10
138.1371889192892
 20
-97.76113001931381
 10
136.8669822138776
 20
-97.76113001931381
 10
136.8669822138776
 20
-97.76113001931381
 10
135.9016664589106
 20
-97.76113001931381
 10
135.9016664589106
 20
-97.76113001931381
 10
135.9016664589106
 20
-97.76113001931381
 10
135.9016664589106
 20
-105.0006536720178
 10
135.9016664589106
 20
-105.0006536720178
 10
135.9016664589106
 20
-105.0006536720178
 10
133.1073495108245
 20
-105.0006536720178
 10
133.1073495108245
 20
-105.0006536720178
 10
133.1073495108245
 20
-105.0006536720178
 10
133.1073495108245
 20
-87.2191378344493
 10
133.1073495108245
 20
-87.2191378344493
 10
133.1073495108245
 20
-87.2191378344493
 10
137.3241463847703
 20
-87.2191378344493
 10
137.3241463847703
 20
-87.2191378344493
 10
140.2200936496713
 20
-87.2191378344493
 10
141.464806648492
 20
-88.56548115008493
 10
141.464806648492
 20
-91.30881068498938
 10
141.464806648492
 20
-91.30881068498938
 10
141.464806648492
 20
-92.70614141380672
 10
141.464806648492
 20
-92.70614141380672
 10
141.464806648492
 20
-94.53479809737733
 10
140.8805184541937
 20
-95.72886819256493
 10
139.6358054553729
 20
-96.3131563868633
 10
141.0327916746417
 20
-96.89744458116168
 10
141.4899558455344
 20
-98.24378789679731
 10
141.4899558455344
 20
-100.0979382869588
 10
141.4899558455344
 20
-100.0979382869588
 10
141.4899558455344
 20
-102.8416123314117
 10
141.4899558455344
 20
-102.8416123314117
 10
141.4899558455344
 20
-103.7052977695639
 10
141.5154495521252
 20
-104.3402288674954
 10
141.794846795979
 20
-105.0006536720178
 10
141.794846795979
 20
-105.0006536720178
 10
138.9498869442596
 20
-105.0006536720178
 10
138.9498869442596
 20
-105.0006536720178
 97
        0
 92
        1
 93
        1
 72
     4
 94
        3
 73
     0
 74
     1
 95
       23
 96
       19
 40
0.0
 40
0.0
 40
0.0
 40
0.0
 40
1.0
 40
1.0
 40
1.0
 40
2.0
 40
2.0
 40
2.0
 40
3.0
 40
3.0
 40
3.0
 40
4.0
 40
4.0
 40
4.0
 40
5.0
 40
5.0
 40
5.0
 40
6.0
 40
6.0
 40
6.0
 40
6.0
 10
135.9016664589106
 20
-89.759206735724
 10
135.9016664589106
 20
-89.759206735724
 10
135.9016664589106
 20
-95.22071660849058
 10
135.9016664589106
 20
-95.22071660849058
 10
135.9016664589106
 20
-95.22071660849058
 10
136.9937617277348
 20
-95.22071660849058
 10
136.9937617277348
 20
-95.22071660849058
 10
138.0355586024743
 20
-95.22071660849058
 10
138.6704897004059
 20
-94.76355243759792
 10
138.6704897004059
 20
-93.34107251173826
 10
138.6704897004059
 20
-93.34107251173826
 10
138.6704897004059
 20
-91.58820792884315
 10
138.6704897004059
 20
-91.58820792884315
 10
138.6704897004059
 20
-90.31834573298006
 10
138.2384747265556
 20
-89.759206735724
 10
137.2480097745462
 20
-89.759206735724
 10
137.2480097745462
 20
-89.759206735724
 10
135.9016664589106
 20
-89.759206735724
 10
135.9016664589106
 20
-89.759206735724
 97
        0
 75
     2
 76
     1
 98
        0
  0
POLYLINE
  5
6D
330
41
100
AcDbEntity
  8
Livello 1
370
     0
100
AcDb2dPolyline
 66
     1
 10
0.0
 20
0.0
 30
0.0
  0
VERTEX
  5
6E
330
6D
100
AcDbEntity
  8
Livello 1
370
     0
100
AcDbVertex
100
AcDb2dVertex
 10
142.5052254850375
 20
-87.2191378344493
 30
0.0
  0
VERTEX
  5
6F
330
6D
100
AcDbEntity
  8
Livello 1
370
     0
100
AcDbVertex
100
AcDb2dVertex
 10
151.1417353570103
 20
-87.2191378344493
 30
0.0
  0
VERTEX
  5
70
330
6D
100
AcDbEntity
  8
Livello 1
370
     0
100
AcDbVertex
100
AcDb2dVertex
 10
151.1417353570103
 20
-89.759206735724
 30
0.0
  0
VERTEX
  5
71
330
6D
100
AcDbEntity
  8
Livello 1
370
     0
100
AcDbVertex
100
AcDb2dVertex
 10
148.220638895067
 20
-89.759206735724
 30
0.0
  0
VERTEX
  5
72
330
6D
100
AcDbEntity
  8
Livello 1
370
     0
100
AcDbVertex
100
AcDb2dVertex
 10
148.220638895067
 20
-105.0006536720178
 30
0.0
  0
VERTEX
  5
73
330
6D
100
AcDbEntity
  8
Livello 1
370
     0
100
AcDbVertex
100
AcDb2dVertex
 10
145.4263219469808
 20
-105.0006536720178
 30
0.0
  0
VERTEX
  5
74
330
6D
100
AcDbEntity
  8
Livello 1
370
     0
100
AcDbVertex
100
AcDb2dVertex
 10
145.4263219469808
 20
-89.759206735724
 30
0.0
  0
VERTEX
  5
75
330
6D
100
AcDbEntity
  8
Livello 1
370
     0
100
AcDbVertex
100
AcDb2dVertex
 10
142.5052254850375
 20
-89.759206735724
 30
0.0
  0
VERTEX
  5
76
330
6D
100
AcDbEntity
  8
Livello 1
370
     0
100
AcDbVertex
100
AcDb2dVertex
 10
142.5052254850375
 20
-87.2191378344493
 30
0.0
  0
SEQEND
  5
77
330
6D
100
AcDbEntity
  8
Livello 1
370
     0
  0
HATCH
  5
78
330
41
100
AcDbEntity
  8
Livello 1
 62
   250
100
AcDbHatch
 10
0.0
 20
0.0
 30
0.0
210
0.0
220
0.0
230
1.0
  2
SOLID
 70
     1
 71
     0
 91
        1
 92
        1
 93
        8
 72
     1
 10
142.5052254850375
 20
-87.2191378344493
 11
151.1417353570103
 21
-87.2191378344493
 72
     1
 10
151.1417353570103
 20
-87.2191378344493
 11
151.1417353570103
 21
-89.759206735724
 72
     1
 10
151.1417353570103
 20
-89.759206735724
 11
148.220638895067
 21
-89.759206735724
 72
     1
 10
148.220638895067
 20
-89.759206735724
 11
148.220638895067
 21
-105.0006536720178
 72
     1
 10
148.220638895067
 20
-105.0006536720178
 11
145.4263219469808
 21
-105.0006536720178
 72
     1
 10
145.4263219469808
 20
-105.0006536720178
 11
145.4263219469808
 21
-89.759206735724
 72
     1
 10
145.4263219469808
 20
-89.759206735724
 11
142.5052254850375
 21
-89.759206735724
 72
     1
 10
142.5052254850375
 20
-89.759206735724
 11
142.5052254850375
 21
-87.2191378344493
 97
        0
 75
     2
 76
     1
 98
        0
  0
SPLINE
  5
79
330
41
100
AcDbEntity
  8
Livello 1
370
     0
100
AcDbSpline
210
0.0
220
0.0
230
1.0
 70
    11
 71
     3
 72
    50
 73
    46
 74
     0
 42
0.0000000001
 43
0.0000000001
 12
1.0
 22
0.0
 32
0.0
 13
1.0
 23
0.0
 33
0.0
 40
0.0
 40
0.0
 40
0.0
 40
0.0
 40
1.0
 40
1.0
 40
1.0
 40
2.0
 40
2.0
 40
2.0
 40
3.0
 40
3.0
 40
3.0
 40
4.0
 40
4.0
 40
4.0
 40
5.0
 40
5.0
 40
5.0
 40
6.0
 40
6.0
 40
6.0
 40
7.0
 40
7.0
 40
7.0
 40
8.0
 40
8.0
 40
8.0
 40
9.0
 40
9.0
 40
9.0
 40
10.0
 40
10.0
 40
10.0
 40
11.0
 40
11.0
 40
11.0
 40
12.0
 40
12.0
 40
12.0
 40
13.0
 40
13.0
 40
13.0
 40
14.0
 40
14.0
 40
14.0
 40
15.0
 40
15.0
 40
15.0
 40
15.0
 10
158.2028030635784
 20
-105.0006536720178
 30
0.0
 10
158.0501853335818
 20
-104.5434895011252
 30
0.0
 10
157.9485550167669
 20
-104.2640922572714
 30
0.0
 10
157.9485550167669
 20
-102.8161186248209
 30
0.0
 10
157.9485550167669
 20
-102.8161186248209
 30
0.0
 10
157.9485550167669
 20
-100.0218016767348
 30
0.0
 10
157.9485550167669
 20
-100.0218016767348
 30
0.0
 10
157.9485550167669
 20
-98.3705674106545
 30
0.0
 10
157.3897605290594
 20
-97.76113001931381
 30
0.0
 10
156.1195538236478
 20
-97.76113001931381
 30
0.0
 10
156.1195538236478
 20
-97.76113001931381
 30
0.0
 10
155.1542380686808
 20
-97.76113001931381
 30
0.0
 10
155.1542380686808
 20
-97.76113001931381
 30
0.0
 10
155.1542380686808
 20
-97.76113001931381
 30
0.0
 10
155.1542380686808
 20
-105.0006536720178
 30
0.0
 10
155.1542380686808
 20
-105.0006536720178
 30
0.0
 10
155.1542380686808
 20
-105.0006536720178
 30
0.0
 10
152.3602656301432
 20
-105.0006536720178
 30
0.0
 10
152.3602656301432
 20
-105.0006536720178
 30
0.0
 10
152.3602656301432
 20
-105.0006536720178
 30
0.0
 10
152.3602656301432
 20
-87.2191378344493
 30
0.0
 10
152.3602656301432
 20
-87.2191378344493
 30
0.0
 10
152.3602656301432
 20
-87.2191378344493
 30
0.0
 10
156.577062504089
 20
-87.2191378344493
 30
0.0
 10
156.577062504089
 20
-87.2191378344493
 30
0.0
 10
159.4726652594415
 20
-87.2191378344493
 30
0.0
 10
160.7173782582622
 20
-88.56548115008493
 30
0.0
 10
160.7173782582622
 20
-91.30881068498938
 30
0.0
 10
160.7173782582622
 20
-91.30881068498938
 30
0.0
 10
160.7173782582622
 20
-92.70614141380672
 30
0.0
 10
160.7173782582622
 20
-92.70614141380672
 30
0.0
 10
160.7173782582622
 20
-94.53479809737733
 30
0.0
 10
160.1334345735124
 20
-95.72886819256493
 30
0.0
 10
158.8883770651431
 20
-96.3131563868633
 30
0.0
 10
160.2857077939604
 20
-96.89744458116168
 30
0.0
 10
160.7428719648531
 20
-98.24378789679731
 30
0.0
 10
160.7428719648531
 20
-100.0979382869588
 30
0.0
 10
160.7428719648531
 20
-100.0979382869588
 30
0.0
 10
160.7428719648531
 20
-102.8416123314117
 30
0.0
 10
160.7428719648531
 20
-102.8416123314117
 30
0.0
 10
160.7428719648531
 20
-103.7052977695639
 30
0.0
 10
160.7683656714439
 20
-104.3402288674954
 30
0.0
 10
161.0477629152977
 20
-105.0006536720178
 30
0.0
 10
161.0477629152977
 20
-105.0006536720178
 30
0.0
 10
158.2028030635784
 20
-105.0006536720178
 30
0.0
 10
158.2028030635784
 20
-105.0006536720178
 30
0.0
  0
SPLINE
  5
7A
330
41
100
AcDbEntity
  8
Livello 1
370
     0
100
AcDbSpline
210
0.0
220
0.0
230
1.0
 70
    11
 71
     3
 72
    23
 73
    19
 74
     0
 42
0.0000000001
 43
0.0000000001
 12
1.0
 22
0.0
 32
0.0
 13
1.0
 23
0.0
 33
0.0
 40
0.0
 40
0.0
 40
0.0
 40
0.0
 40
1.0
 40
1.0
 40
1.0
 40
2.0
 40
2.0
 40
2.0
 40
3.0
 40
3.0
 40
3.0
 40
4.0
 40
4.0
 40
4.0
 40
5.0
 40
5.0
 40
5.0
 40
6.0
 40
6.0
 40
6.0
 40
6.0
 10
155.1542380686808
 20
-89.759206735724
 30
0.0
 10
155.1542380686808
 20
-89.759206735724
 30
0.0
 10
155.1542380686808
 20
-95.22071660849058
 30
0.0
 10
155.1542380686808
 20
-95.22071660849058
 30
0.0
 10
155.1542380686808
 20
-95.22071660849058
 30
0.0
 10
156.2466778470535
 20
-95.22071660849058
 30
0.0
 10
156.2466778470535
 20
-95.22071660849058
 30
0.0
 10
157.2881302122445
 20
-95.22071660849058
 30
0.0
 10
157.9230613101761
 20
-94.76355243759792
 30
0.0
 10
157.9230613101761
 20
-93.34107251173826
 30
0.0
 10
157.9230613101761
 20
-93.34107251173826
 30
0.0
 10
157.9230613101761
 20
-91.58820792884315
 30
0.0
 10
157.9230613101761
 20
-91.58820792884315
 30
0.0
 10
157.9230613101761
 20
-90.31834573298006
 30
0.0
 10
157.4913908458743
 20
-89.759206735724
 30
0.0
 10
156.5005813843164
 20
-89.759206735724
 30
0.0
 10
156.5005813843164
 20
-89.759206735724
 30
0.0
 10
155.1542380686808
 20
-89.759206735724
 30
0.0
 10
155.1542380686808
 20
-89.759206735724
 30
0.0
  0
HATCH
  5
7B
330
41
100
AcDbEntity
  8
Livello 1
 62
   250
100
AcDbHatch
 10
0.0
 20
0.0
 30
0.0
210
0.0
220
0.0
230
1.0
  2
SOLID
 70
     1
 71
     0
 91
        2
 92
        1
 93
        1
 72
     4
 94
        3
 73
     0
 74
     1
 95
       50
 96
       46
 40
0.0
 40
0.0
 40
0.0
 40
0.0
 40
1.0
 40
1.0
 40
1.0
 40
2.0
 40
2.0
 40
2.0
 40
3.0
 40
3.0
 40
3.0
 40
4.0
 40
4.0
 40
4.0
 40
5.0
 40
5.0
 40
5.0
 40
6.0
 40
6.0
 40
6.0
 40
7.0
 40
7.0
 40
7.0
 40
8.0
 40
8.0
 40
8.0
 40
9.0
 40
9.0
 40
9.0
 40
10.0
 40
10.0
 40
10.0
 40
11.0
 40
11.0
 40
11.0
 40
12.0
 40
12.0
 40
12.0
 40
13.0
 40
13.0
 40
13.0
 40
14.0
 40
14.0
 40
14.0
 40
15.0
 40
15.0
 40
15.0
 40
15.0
 10
158.2028030635784
 20
-105.0006536720178
 10
158.0501853335818
 20
-104.5434895011252
 10
157.9485550167669
 20
-104.2640922572714
 10
157.9485550167669
 20
-102.8161186248209
 10
157.9485550167669
 20
-102.8161186248209
 10
157.9485550167669
 20
-100.0218016767348
 10
157.9485550167669
 20
-100.0218016767348
 10
157.9485550167669
 20
-98.3705674106545
 10
157.3897605290594
 20
-97.76113001931381
 10
156.1195538236478
 20
-97.76113001931381
 10
156.1195538236478
 20
-97.76113001931381
 10
155.1542380686808
 20
-97.76113001931381
 10
155.1542380686808
 20
-97.76113001931381
 10
155.1542380686808
 20
-97.76113001931381
 10
155.1542380686808
 20
-105.0006536720178
 10
155.1542380686808
 20
-105.0006536720178
 10
155.1542380686808
 20
-105.0006536720178
 10
152.3602656301432
 20
-105.0006536720178
 10
152.3602656301432
 20
-105.0006536720178
 10
152.3602656301432
 20
-105.0006536720178
 10
152.3602656301432
 20
-87.2191378344493
 10
152.3602656301432
 20
-87.2191378344493
 10
152.3602656301432
 20
-87.2191378344493
 10
156.577062504089
 20
-87.2191378344493
 10
156.577062504089
 20
-87.2191378344493
 10
159.4726652594415
 20
-87.2191378344493
 10
160.7173782582622
 20
-88.56548115008493
 10
160.7173782582622
 20
-91.30881068498938
 10
160.7173782582622
 20
-91.30881068498938
 10
160.7173782582622
 20
-92.70614141380672
 10
160.7173782582622
 20
-92.70614141380672
 10
160.7173782582622
 20
-94.53479809737733
 10
160.1334345735124
 20
-95.72886819256493
 10
158.8883770651431
 20
-96.3131563868633
 10
160.2857077939604
 20
-96.89744458116168
 10
160.7428719648531
 20
-98.24378789679731
 10
160.7428719648531
 20
-100.0979382869588
 10
160.7428719648531
 20
-100.0979382869588
 10
160.7428719648531
 20
-102.8416123314117
 10
160.7428719648531
 20
-102.8416123314117
 10
160.7428719648531
 20
-103.7052977695639
 10
160.7683656714439
 20
-104.3402288674954
 10
161.0477629152977
 20
-105.0006536720178
 10
161.0477629152977
 20
-105.0006536720178
 10
158.2028030635784
 20
-105.0006536720178
 10
158.2028030635784
 20
-105.0006536720178
 97
        0
 92
        1
 93
        1
 72
     4
 94
        3
 73
     0
 74
     1
 95
       23
 96
       19
 40
0.0
 40
0.0
 40
0.0
 40
0.0
 40
1.0
 40
1.0
 40
1.0
 40
2.0
 40
2.0
 40
2.0
 40
3.0
 40
3.0
 40
3.0
 40
4.0
 40
4.0
 40
4.0
 40
5.0
 40
5.0
 40
5.0
 40
6.0
 40
6.0
 40
6.0
 40
6.0
 10
155.1542380686808
 20
-89.759206735724
 10
155.1542380686808
 20
-89.759206735724
 10
155.1542380686808
 20
-95.22071660849058
 10
155.1542380686808
 20
-95.22071660849058
 10
155.1542380686808
 20
-95.22071660849058
 10
156.2466778470535
 20
-95.22071660849058
 10
156.2466778470535
 20
-95.22071660849058
 10
157.2881302122445
 20
-95.22071660849058
 10
157.9230613101761
 20
-94.76355243759792
 10
157.9230613101761
 20
-93.34107251173826
 10
157.9230613101761
 20
-93.34107251173826
 10
157.9230613101761
 20
-91.58820792884315
 10
157.9230613101761
 20
-91.58820792884315
 10
157.9230613101761
 20
-90.31834573298006
 10
157.4913908458743
 20
-89.759206735724
 10
156.5005813843164
 20
-89.759206735724
 10
156.5005813843164
 20
-89.759206735724
 10
155.1542380686808
 20
-89.759206735724
 10
155.1542380686808
 20
-89.759206735724
 97
        0
 75
     2
 76
     1
 98
        0
  0
POLYLINE
  5
7C
330
41
100
AcDbEntity
  8
Livello 1
370
     0
100
AcDb2dPolyline
 66
     1
 10
0.0
 20
0.0
 30
0.0
  0
VERTEX
  5
7D
330
7C
100
AcDbEntity
  8
Livello 1
370
     0
100
AcDbVertex
100
AcDb2dVertex
 10
171.6142152781075
 20
-105.0006536720178
 30
0.0
  0
VERTEX
  5
7E
330
7C
100
AcDbEntity
  8
Livello 1
370
     0
100
AcDbVertex
100
AcDb2dVertex
 10
168.7944046234305
 20
-105.0006536720178
 30
0.0
  0
VERTEX
  5
7F
330
7C
100
AcDbEntity
  8
Livello 1
370
     0
100
AcDbVertex
100
AcDb2dVertex
 10
168.311746745947
 20
-101.7746662596299
 30
0.0
  0
VERTEX
  5
80
330
7C
100
AcDbEntity
  8
Livello 1
370
     0
100
AcDbVertex
100
AcDb2dVertex
 10
164.8824986999293
 20
-101.7746662596299
 30
0.0
  0
VERTEX
  5
81
330
7C
100
AcDbEntity
  8
Livello 1
370
     0
100
AcDbVertex
100
AcDb2dVertex
 10
164.3998408224458
 20
-105.0006536720178
 30
0.0
  0
VERTEX
  5
82
330
7C
100
AcDbEntity
  8
Livello 1
370
     0
100
AcDbVertex
100
AcDb2dVertex
 10
161.8342782145802
 20
-105.0006536720178
 30
0.0
  0
VERTEX
  5
83
330
7C
100
AcDbEntity
  8
Livello 1
370
     0
100
AcDbVertex
100
AcDb2dVertex
 10
164.6792380662995
 20
-87.2191378344493
 30
0.0
  0
VERTEX
  5
84
330
7C
100
AcDbEntity
  8
Livello 1
370
     0
100
AcDbVertex
100
AcDb2dVertex
 10
168.7692554263882
 20
-87.2191378344493
 30
0.0
  0
VERTEX
  5
85
330
7C
100
AcDbEntity
  8
Livello 1
370
     0
100
AcDbVertex
100
AcDb2dVertex
 10
171.6142152781075
 20
-105.0006536720178
 30
0.0
  0
SEQEND
  5
86
330
7C
100
AcDbEntity
  8
Livello 1
370
     0
  0
POLYLINE
  5
87
330
41
100
AcDbEntity
  8
Livello 1
370
     0
100
AcDb2dPolyline
 66
     1
 10
0.0
 20
0.0
 30
0.0
  0
VERTEX
  5
88
330
87
100
AcDbEntity
  8
Livello 1
370
     0
100
AcDbVertex
100
AcDb2dVertex
 10
165.2380325540071
 20
-99.36137687221236
 30
0.0
  0
VERTEX
  5
89
330
87
100
AcDbEntity
  8
Livello 1
370
     0
100
AcDbVertex
100
AcDb2dVertex
 10
167.9307191852783
 20
-99.36137687221236
 30
0.0
  0
VERTEX
  5
8A
330
87
100
AcDbEntity
  8
Livello 1
370
     0
100
AcDbVertex
100
AcDb2dVertex
 10
166.5843758696427
 20
-90.36898863661322
 30
0.0
  0
VERTEX
  5
8B
330
87
100
AcDbEntity
  8
Livello 1
370
     0
100
AcDbVertex
100
AcDb2dVertex
 10
165.2380325540071
 20
-99.36137687221236
 30
0.0
  0
SEQEND
  5
8C
330
87
100
AcDbEntity
  8
Livello 1
370
     0
  0
HATCH
  5
8D
330
41
100
AcDbEntity
  8
Livello 1
 62
   250
100
AcDbHatch
 10
0.0
 20
0.0
 30
0.0
210
0.0
220
0.0
230
1.0
  2
SOLID
 70
     1
 71
     0
 91
        2
 92
        1
 93
        8
 72
     1
 10
171.6142152781075
 20
-105.0006536720178
 11
168.7944046234305
 21
-105.0006536720178
 72
     1
 10
168.7944046234305
 20
-105.0006536720178
 11
168.311746745947
 21
-101.7746662596299
 72
     1
 10
168.311746745947
 20
-101.7746662596299
 11
164.8824986999293
 21
-101.7746662596299
 72
     1
 10
164.8824986999293
 20
-101.7746662596299
 11
164.3998408224458
 21
-105.0006536720178
 72
     1
 10
164.3998408224458
 20
-105.0006536720178
 11
161.8342782145802
 21
-105.0006536720178
 72
     1
 10
161.8342782145802
 20
-105.0006536720178
 11
164.6792380662995
 21
-87.2191378344493
 72
     1
 10
164.6792380662995
 20
-87.2191378344493
 11
168.7692554263882
 21
-87.2191378344493
 72
     1
 10
168.7692554263882
 20
-87.2191378344493
 11
171.6142152781075
 21
-105.0006536720178
 97
        0
 92
        1
 93
        3
 72
     1
 10
165.2380325540071
 20
-99.36137687221236
 11
167.9307191852783
 21
-99.36137687221236
 72
     1
 10
167.9307191852783
 20
-99.36137687221236
 11
166.5843758696427
 21
-90.36898863661322
 72
     1
 10
166.5843758696427
 20
-90.36898863661322
 11
165.2380325540071
 21
-99.36137687221236
 97
        0
 75
     2
 76
     1
 98
        0
  0
SPLINE
  5
8E
330
41
100
AcDbEntity
  8
Livello 1
370
     0
100
AcDbSpline
210
0.0
220
0.0
230
1.0
 70
    11
 71
     3
 72
    53
 73
    49
 74
     0
 42
0.0000000001
 43
0.0000000001
 12
1.0
 22
0.0
 32
0.0
 13
1.0
 23
0.0
 33
0.0
 40
0.0
 40
0.0
 40
0.0
 40
0.0
 40
1.0
 40
1.0
 40
1.0
 40
2.0
 40
2.0
 40
2.0
 40
3.0
 40
3.0
 40
3.0
 40
4.0
 40
4.0
 40
4.0
 40
5.0
 40
5.0
 40
5.0
 40
6.0
 40
6.0
 40
6.0
 40
7.0
 40
7.0
 40
7.0
 40
8.0
 40
8.0
 40
8.0
 40
9.0
 40
9.0
 40
9.0
 40
10.0
 40
10.0
 40
10.0
 40
11.0
 40
11.0
 40
11.0
 40
12.0
 40
12.0
 40
12.0
 40
13.0
 40
13.0
 40
13.0
 40
14.0
 40
14.0
 40
14.0
 40
15.0
 40
15.0
 40
15.0
 40
16.0
 40
16.0
 40
16.0
 40
16.0
 10
176.668170354969
 20
-87.01587720081956
 30
0.0
 10
179.3863506928311
 20
-87.01587720081956
 30
0.0
 10
180.7833369120999
 20
-88.64161776030896
 30
0.0
 10
180.7833369120999
 20
-91.48657761202828
 30
0.0
 10
180.7833369120999
 20
-91.48657761202828
 30
0.0
 10
180.7833369120999
 20
-92.0453720997358
 30
0.0
 10
180.7833369120999
 20
-92.0453720997358
 30
0.0
 10
180.7833369120999
 20
-92.0453720997358
 30
0.0
 10
178.1416376940103
 20
-92.0453720997358
 30
0.0
 10
178.1416376940103
 20
-92.0453720997358
 30
0.0
 10
178.1416376940103
 20
-92.0453720997358
 30
0.0
 10
178.1416376940103
 20
-91.30881068498938
 30
0.0
 10
178.1416376940103
 20
-91.30881068498938
 30
0.0
 10
178.1416376940103
 20
-90.03860397957777
 30
0.0
 10
177.633486109936
 20
-89.55594610209427
 30
0.0
 10
176.744306965193
 20
-89.55594610209427
 30
0.0
 10
175.8554723299985
 20
-89.55594610209427
 30
0.0
 10
175.3473207459242
 20
-90.03860397957777
 30
0.0
 10
175.3473207459242
 20
-91.30881068498938
 30
0.0
 10
175.3473207459242
 20
-94.96681307122766
 30
0.0
 10
180.8088306186908
 20
-95.6527315823409
 30
0.0
 10
180.8088306186908
 20
-100.7332138944388
 30
0.0
 10
180.8088306186908
 20
-103.5781737461582
 30
0.0
 10
179.3863506928311
 20
-105.2039143056476
 30
0.0
 10
176.6426766483781
 20
-105.2039143056476
 30
0.0
 10
173.8993471134737
 20
-105.2039143056476
 30
0.0
 10
172.476867187614
 20
-103.5781737461582
 30
0.0
 10
172.476867187614
 20
-100.7332138944388
 30
0.0
 10
172.476867187614
 20
-100.7332138944388
 30
0.0
 10
172.476867187614
 20
-99.64077411606611
 30
0.0
 10
172.476867187614
 20
-99.64077411606611
 30
0.0
 10
172.476867187614
 20
-99.64077411606611
 30
0.0
 10
175.1185664057036
 20
-99.64077411606611
 30
0.0
 10
175.1185664057036
 20
-99.64077411606611
 30
0.0
 10
175.1185664057036
 20
-99.64077411606611
 30
0.0
 10
175.1185664057036
 20
-100.9109808214777
 30
0.0
 10
175.1185664057036
 20
-100.9109808214777
 30
0.0
 10
175.1185664057036
 20
-102.1808430173408
 30
0.0
 10
175.6773608934111
 20
-102.638351697782
 30
0.0
 10
176.5665400381541
 20
-102.638351697782
 30
0.0
 10
177.4557191828971
 20
-102.638351697782
 30
0.0
 10
178.0145136706046
 20
-102.1808430173408
 30
0.0
 10
178.0145136706046
 20
-100.9109808214777
 30
0.0
 10
178.0145136706046
 20
-97.25297843523946
 30
0.0
 10
172.553003797838
 20
-96.56705992412621
 30
0.0
 10
172.553003797838
 20
-91.48657761202828
 30
0.0
 10
172.553003797838
 20
-88.64161776030896
 30
0.0
 10
173.9499900171069
 20
-87.01587720081956
 30
0.0
 10
176.668170354969
 20
-87.01587720081956
 30
0.0
  0
HATCH
  5
8F
330
41
100
AcDbEntity
  8
Livello 1
 62
   250
100
AcDbHatch
 10
0.0
 20
0.0
 30
0.0
210
0.0
220
0.0
230
1.0
  2
SOLID
 70
     1
 71
     0
 91
        1
 92
        1
 93
        1
 72
     4
 94
        3
 73
     0
 74
     1
 95
       53
 96
       49
 40
0.0
 40
0.0
 40
0.0
 40
0.0
 40
1.0
 40
1.0
 40
1.0
 40
2.0
 40
2.0
 40
2.0
 40
3.0
 40
3.0
 40
3.0
 40
4.0
 40
4.0
 40
4.0
 40
5.0
 40
5.0
 40
5.0
 40
6.0
 40
6.0
 40
6.0
 40
7.0
 40
7.0
 40
7.0
 40
8.0
 40
8.0
 40
8.0
 40
9.0
 40
9.0
 40
9.0
 40
10.0
 40
10.0
 40
10.0
 40
11.0
 40
11.0
 40
11.0
 40
12.0
 40
12.0
 40
12.0
 40
13.0
 40
13.0
 40
13.0
 40
14.0
 40
14.0
 40
14.0
 40
15.0
 40
15.0
 40
15.0
 40
16.0
 40
16.0
 40
16.0
 40
16.0
 10
176.668170354969
 20
-87.01587720081956
 10
179.3863506928311
 20
-87.01587720081956
 10
180.7833369120999
 20
-88.64161776030896
 10
180.7833369120999
 20
-91.48657761202828
 10
180.7833369120999
 20
-91.48657761202828
 10
180.7833369120999
 20
-92.0453720997358
 10
180.7833369120999
 20
-92.0453720997358
 10
180.7833369120999
 20
-92.0453720997358
 10
178.1416376940103
 20
-92.0453720997358
 10
178.1416376940103
 20
-92.0453720997358
 10
178.1416376940103
 20
-92.0453720997358
 10
178.1416376940103
 20
-91.30881068498938
 10
178.1416376940103
 20
-91.30881068498938
 10
178.1416376940103
 20
-90.03860397957777
 10
177.633486109936
 20
-89.55594610209427
 10
176.744306965193
 20
-89.55594610209427
 10
175.8554723299985
 20
-89.55594610209427
 10
175.3473207459242
 20
-90.03860397957777
 10
175.3473207459242
 20
-91.30881068498938
 10
175.3473207459242
 20
-94.96681307122766
 10
180.8088306186908
 20
-95.6527315823409
 10
180.8088306186908
 20
-100.7332138944388
 10
180.8088306186908
 20
-103.5781737461582
 10
179.3863506928311
 20
-105.2039143056476
 10
176.6426766483781
 20
-105.2039143056476
 10
173.8993471134737
 20
-105.2039143056476
 10
172.476867187614
 20
-103.5781737461582
 10
172.476867187614
 20
-100.7332138944388
 10
172.476867187614
 20
-100.7332138944388
 10
172.476867187614
 20
-99.64077411606611
 10
172.476867187614
 20
-99.64077411606611
 10
172.476867187614
 20
-99.64077411606611
 10
175.1185664057036
 20
-99.64077411606611
 10
175.1185664057036
 20
-99.64077411606611
 10
175.1185664057036
 20
-99.64077411606611
 10
175.1185664057036
 20
-100.9109808214777
 10
175.1185664057036
 20
-100.9109808214777
 10
175.1185664057036
 20
-102.1808430173408
 10
175.6773608934111
 20
-102.638351697782
 10
176.5665400381541
 20
-102.638351697782
 10
177.4557191828971
 20
-102.638351697782
 10
178.0145136706046
 20
-102.1808430173408
 10
178.0145136706046
 20
-100.9109808214777
 10
178.0145136706046
 20
-97.25297843523946
 10
172.553003797838
 20
-96.56705992412621
 10
172.553003797838
 20
-91.48657761202828
 10
172.553003797838
 20
-88.64161776030896
 10
173.9499900171069
 20
-87.01587720081956
 10
176.668170354969
 20
-87.01587720081956
 97
        0
 75
     2
 76
     1
 98
        0
  0
POLYLINE
  5
90
330
41
100
AcDbEntity
  8
Livello 1
370
     0
100
AcDb2dPolyline
 66
     1
 10
0.0
 20
0.0
 30
0.0
  0
VERTEX
  5
91
330
90
100
AcDbEntity
  8
Livello 1
370
     0
100
AcDbVertex
100
AcDb2dVertex
 10
185.2020163814813
 20
-105.0006536720178
 30
0.0
  0
VERTEX
  5
92
330
90
100
AcDbEntity
  8
Livello 1
370
     0
100
AcDbVertex
100
AcDb2dVertex
 10
182.4076994333952
 20
-105.0006536720178
 30
0.0
  0
VERTEX
  5
93
330
90
100
AcDbEntity
  8
Livello 1
370
     0
100
AcDbVertex
100
AcDb2dVertex
 10
182.4076994333952
 20
-87.2191378344493
 30
0.0
  0
VERTEX
  5
94
330
90
100
AcDbEntity
  8
Livello 1
370
     0
100
AcDbVertex
100
AcDb2dVertex
 10
185.2020163814813
 20
-87.2191378344493
 30
0.0
  0
VERTEX
  5
95
330
90
100
AcDbEntity
  8
Livello 1
370
     0
100
AcDbVertex
100
AcDb2dVertex
 10
185.2020163814813
 20
-94.83968904782195
 30
0.0
  0
VERTEX
  5
96
330
90
100
AcDbEntity
  8
Livello 1
370
     0
100
AcDbVertex
100
AcDb2dVertex
 10
188.3773608902361
 20
-94.83968904782195
 30
0.0
  0
VERTEX
  5
97
330
90
100
AcDbEntity
  8
Livello 1
370
     0
100
AcDbVertex
100
AcDb2dVertex
 10
188.3773608902361
 20
-87.2191378344493
 30
0.0
  0
VERTEX
  5
98
330
90
100
AcDbEntity
  8
Livello 1
370
     0
100
AcDbVertex
100
AcDb2dVertex
 10
191.2223207419554
 20
-87.2191378344493
 30
0.0
  0
VERTEX
  5
99
330
90
100
AcDbEntity
  8
Livello 1
370
     0
100
AcDbVertex
100
AcDb2dVertex
 10
191.2223207419554
 20
-105.0006536720178
 30
0.0
  0
VERTEX
  5
9A
330
90
100
AcDbEntity
  8
Livello 1
370
     0
100
AcDbVertex
100
AcDb2dVertex
 10
188.3773608902361
 20
-105.0006536720178
 30
0.0
  0
VERTEX
  5
9B
330
90
100
AcDbEntity
  8
Livello 1
370
     0
100
AcDbVertex
100
AcDb2dVertex
 10
188.3773608902361
 20
-97.38010245864517
 30
0.0
  0
VERTEX
  5
9C
330
90
100
AcDbEntity
  8
Livello 1
370
     0
100
AcDbVertex
100
AcDb2dVertex
 10
185.2020163814813
 20
-97.38010245864517
 30
0.0
  0
VERTEX
  5
9D
330
90
100
AcDbEntity
  8
Livello 1
370
     0
100
AcDbVertex
100
AcDb2dVertex
 10
185.2020163814813
 20
-105.0006536720178
 30
0.0
  0
SEQEND
  5
9E
330
90
100
AcDbEntity
  8
Livello 1
370
     0
  0
HATCH
  5
9F
330
41
100
AcDbEntity
  8
Livello 1
 62
   250
100
AcDbHatch
 10
0.0
 20
0.0
 30
0.0
210
0.0
220
0.0
230
1.0
  2
SOLID
 70
     1
 71
     0
 91
        1
 92
        1
 93
       12
 72
     1
 10
185.2020163814813
 20
-105.0006536720178
 11
182.4076994333952
 21
-105.0006536720178
 72
     1
 10
182.4076994333952
 20
-105.0006536720178
 11
182.4076994333952
 21
-87.2191378344493
 72
     1
 10
182.4076994333952
 20
-87.2191378344493
 11
185.2020163814813
 21
-87.2191378344493
 72
     1
 10
185.2020163814813
 20
-87.2191378344493
 11
185.2020163814813
 21
-94.83968904782195
 72
     1
 10
185.2020163814813
 20
-94.83968904782195
 11
188.3773608902361
 21
-94.83968904782195
 72
     1
 10
188.3773608902361
 20
-94.83968904782195
 11
188.3773608902361
 21
-87.2191378344493
 72
     1
 10
188.3773608902361
 20
-87.2191378344493
 11
191.2223207419554
 21
-87.2191378344493
 72
     1
 10
191.2223207419554
 20
-87.2191378344493
 11
191.2223207419554
 21
-105.0006536720178
 72
     1
 10
191.2223207419554
 20
-105.0006536720178
 11
188.3773608902361
 21
-105.0006536720178
 72
     1
 10
188.3773608902361
 20
-105.0006536720178
 11
188.3773608902361
 21
-97.38010245864517
 72
     1
 10
188.3773608902361
 20
-97.38010245864517
 11
185.2020163814813
 21
-97.38010245864517
 72
     1
 10
185.2020163814813
 20
-97.38010245864517
 11
185.2020163814813
 21
-105.0006536720178
 97
        0
 75
     2
 76
     1
 98
        0
  0
ENDBLK
  5
44
330
41
100
AcDbEntity
  8
0
100
AcDbBlockEnd
  0
ENDSEC
  0
SECTION
  2
ENTITIES
  0
INSERT
  5
42
330
1F
100
AcDbEntity
  8
Livello 1
100
AcDbBlockReference
  2
block 2
 10
0.0
 20
0.0
 30
0.0
  0
IMAGE
  5
A3
330
1F
100
AcDbEntity
  8
Livello 1
 92
        8
310
0800000000000000
100
AcDbRasterImage
 90
        0
 10
75.1021970246837
 20
-106.9713942223543
 30
0.0
 11
0.06186753003905843
 21
0.0
 31
0.0
 12
0.0
 22
0.06186753003905843
 32
0.0
 13
367.0
 23
358.0
340
A1
 70
     3
280
     0
281
    50
282
    50
283
     0
360
A4
 71
     1
 91
        2
 14
-0.5
 24
-0.5
 14
366.5
 24
357.5
  0
IMAGE
  5
A6
330
1F
100
AcDbEntity
  8
Livello 1
 92
        8
310
0800000000000000
100
AcDbRasterImage
 90
        0
 10
193.221395712689
 20
-107.3241720000443
 30
0.0
 11
0.06186753003905843
 21
0.0
 31
0.0
 12
0.0
 22
0.06186753003905843
 32
0.0
 13
367.0
 23
358.0
340
A5
 70
     3
280
     0
281
    50
282
    50
283
     0
360
A7
 71
     1
 91
        2
 14
-0.5
 24
-0.5
 14
366.5
 24
357.5
  0
ENDSEC
  0
SECTION
  2
OBJECTS
  0
DICTIONARY
  5
C
330
0
100
AcDbDictionary
281
     1
  3
ACAD_GROUP
350
D
  3
ACAD_IMAGE_DICT
350
A0
  3
ACAD_IMAGE_VARS
350
A2
  3
ACAD_LAYOUT
350
1A
  3
ACAD_MATERIAL
350
3B
  3
ACAD_MLEADERSTYLE
350
CF
  3
ACAD_MLINESTYLE
350
17
  3
ACAD_PLOTSETTINGS
350
19
  3
ACAD_PLOTSTYLENAME
350
E
  3
ACAD_TABLESTYLE
350
CE
  3
ACAD_VISUALSTYLE
350
2A
  0
IMAGEDEF_REACTOR
  5
A4
330
A3
100
AcDbRasterImageDefReactor
 90
        2
330
A3
  0
IMAGEDEF_REACTOR
  5
A7
330
A6
100
AcDbRasterImageDefReactor
 90
        2
330
A6
  0
DICTIONARY
  5
D
102
{ACAD_REACTORS
330
C
102
}
330
C
100
AcDbDictionary
281
     1
  0
DICTIONARY
  5
A0
102
{ACAD_REACTORS
330
C
102
}
330
C
100
AcDbDictionary
281
     1
  3
/Users/MarcoP/Desktop/targhetta_1.png
350
A1
  3
/Users/MarcoP/Desktop/targhetta_2.png
350
A5
  0
RASTERVARIABLES
  5
A2
102
{ACAD_REACTORS
330
C
102
}
330
C
100
AcDbRasterVariables
 90
        0
 70
     0
 71
     1
 72
     0
  0
DICTIONARY
  5
1A
102
{ACAD_REACTORS
330
C
102
}
330
C
100
AcDbDictionary
281
     1
  3
Layout1
350
1E
  3
Layout2
350
26
  3
Model
350
22
  0
DICTIONARY
  5
3B
102
{ACAD_REACTORS
330
C
102
}
330
C
100
AcDbDictionary
281
     1
  3
ByBlock
350
3D
  3
ByLayer
350
3C
  3
Global
350
3E
  0
DICTIONARY
  5
CF
102
{ACAD_REACTORS
330
C
102
}
330
C
100
AcDbDictionary
281
     1
  0
DICTIONARY
  5
17
102
{ACAD_REACTORS
330
C
102
}
330
C
100
AcDbDictionary
281
     1
  3
Standard
350
18
  0
DICTIONARY
  5
19
102
{ACAD_REACTORS
330
C
102
}
330
C
100
AcDbDictionary
281
     1
  0
ACDBDICTIONARYWDFLT
  5
E
102
{ACAD_REACTORS
330
C
102
}
330
C
100
AcDbDictionary
281
     1
  3
Normal
350
F
100
AcDbDictionaryWithDefault
340
F
  0
DICTIONARY
  5
CE
102
{ACAD_REACTORS
330
C
102
}
330
C
100
AcDbDictionary
281
     1
  0
DICTIONARY
  5
2A
102
{ACAD_REACTORS
330
C
102
}
330
C
100
AcDbDictionary
281
     1
  3
2dWireframe
350
2F
  3
3D Hidden
350
31
  3
3dWireframe
350
30
  3
Basic
350
32
  3
Brighten
350
36
  3
ColorChange
350
3A
  3
Conceptual
350
34
  3
Dim
350
35
  3
Facepattern
350
39
  3
Flat
350
2B
  3
FlatWithEdges
350
2C
  3
Gouraud
350
2D
  3
GouraudWithEdges
350
2E
  3
Linepattern
350
38
  3
Realistic
350
33
  3
Thicken
350
37
  0
IMAGEDEF
  5
A1
102
{ACAD_REACTORS
330
A0
330
A4
102
}
330
A0
100
AcDbRasterImageDef
 90
        0
  1
/Users/MarcoP/Desktop/targhetta_1.png
 10
367.0
 20
358.0
 11
0.3527777777777777
 21
0.3527777777777777
280
     1
281
     5
  0
IMAGEDEF
  5
A5
102
{ACAD_REACTORS
330
A0
330
A7
102
}
330
A0
100
AcDbRasterImageDef
 90
        0
  1
/Users/MarcoP/Desktop/targhetta_2.png
 10
367.0
 20
358.0
 11
0.3527777777777777
 21
0.3527777777777777
280
     1
281
     5
  0
LAYOUT
  5
1E
102
{ACAD_REACTORS
330
1A
102
}
330
1A
100
AcDbPlotSettings
  1

  2
none_device
  4

  6

 40
0.0
 41
0.0
 42
0.0
 43
0.0
 44
0.0
 45
0.0
 46
0.0
 47
0.0
 48
0.0
 49
0.0
140
0.0
141
0.0
142
1.0
143
1.0
 70
   688
 72
     0
 73
     0
 74
     5
  7

 75
    16
 76
     0
 77
     2
 78
   300
147
1.0
148
0.0
149
0.0
100
AcDbLayout
  1
Layout1
 70
     1
 71
     1
 10
0.0
 20
0.0
 11
12.0
 21
9.0
 12
0.0
 22
0.0
 32
0.0
 14
1.000000000000000E+20
 24
1.000000000000000E+20
 34
1.000000000000000E+20
 15
-1.000000000000000E+20
 25
-1.000000000000000E+20
 35
-1.000000000000000E+20
146
0.0
 13
0.0
 23
0.0
 33
0.0
 16
1.0
 26
0.0
 36
0.0
 17
0.0
 27
1.0
 37
0.0
 76
     0
330
1B
  0
LAYOUT
  5
26
102
{ACAD_REACTORS
330
1A
102
}
330
1A
100
AcDbPlotSettings
  1

  2
none_device
  4

  6

 40
0.0
 41
0.0
 42
0.0
 43
0.0
 44
0.0
 45
0.0
 46
0.0
 47
0.0
 48
0.0
 49
0.0
140
0.0
141
0.0
142
1.0
143
1.0
 70
   688
 72
     0
 73
     0
 74
     5
  7

 75
    16
 76
     0
 77
     2
 78
   300
147
1.0
148
0.0
149
0.0
100
AcDbLayout
  1
Layout2
 70
     1
 71
     2
 10
0.0
 20
0.0
 11
0.0
 21
0.0
 12
0.0
 22
0.0
 32
0.0
 14
0.0
 24
0.0
 34
0.0
 15
0.0
 25
0.0
 35
0.0
146
0.0
 13
0.0
 23
0.0
 33
0.0
 16
1.0
 26
0.0
 36
0.0
 17
0.0
 27
1.0
 37
0.0
 76
     0
330
23
  0
LAYOUT
  5
22
102
{ACAD_REACTORS
330
1A
102
}
330
1A
100
AcDbPlotSettings
  1

  2
none_device
  4

  6

 40
0.0
 41
0.0
 42
0.0
 43
0.0
 44
0.0
 45
0.0
 46
0.0
 47
0.0
 48
0.0
 49
0.0
140
0.0
141
0.0
142
1.0
143
1.0
 70
  1712
 72
     0
 73
     0
 74
     0
  7

 75
     0
 76
     0
 77
     2
 78
   300
147
1.0
148
0.0
149
0.0
100
AcDbLayout
  1
Model
 70
     1
 71
     0
 10
0.0
 20
0.0
 11
12.0
 21
9.0
 12
0.0
 22
0.0
 32
0.0
 14
1.000000000000000E+20
 24
1.000000000000000E+20
 34
1.000000000000000E+20
 15
-1.000000000000000E+20
 25
-1.000000000000000E+20
 35
-1.000000000000000E+20
146
0.0
 13
0.0
 23
0.0
 33
0.0
 16
1.0
 26
0.0
 36
0.0
 17
0.0
 27
1.0
 37
0.0
 76
     0
330
1F
331
29
  0
MATERIAL
  5
3D
102
{ACAD_REACTORS
330
3B
102
}
102
{ACAD_XDICTIONARY
360
CA
102
}
330
3B
100
AcDbMaterial
  1
ByBlock
  0
MATERIAL
  5
3C
102
{ACAD_REACTORS
330
3B
102
}
102
{ACAD_XDICTIONARY
360
C8
102
}
330
3B
100
AcDbMaterial
  1
ByLayer
  0
MATERIAL
  5
3E
102
{ACAD_REACTORS
330
3B
102
}
102
{ACAD_XDICTIONARY
360
CC
102
}
330
3B
100
AcDbMaterial
  1
Global
  0
MLINESTYLE
  5
18
102
{ACAD_REACTORS
330
17
102
}
330
17
100
AcDbMlineStyle
  2
Standard
 70
     0
  3

 62
   256
 51
90.0
 52
90.0
 71
     2
 49
0.5
 62
   256
  6
BYLAYER
 49
-0.5
 62
   256
  6
BYLAYER
  0
ACDBPLACEHOLDER
  5
F
102
{ACAD_REACTORS
330
E
102
}
330
E
  0
VISUALSTYLE
  5
2F
102
{ACAD_REACTORS
330
2A
102
}
102
{ACAD_XDICTIONARY
360
B0
102
}
330
2A
100
AcDbVisualStyle
  2
2dWireframe
 70
     4
 71
     0
 72
     2
 73
     0
 90
        0
 40
-0.6
 41
-30.0
 62
     5
 63
     7
421
 16777215
 74
     1
 91
        4
 64
     7
 65
   257
 75
     1
175
     1
 42
1.0
 92
        0
 66
   257
 43
1.0
 76
     1
 77
     6
 78
     2
 67
     7
 79
     5
170
     0
171
     0
290
     0
174
     0
 93
        1
 44
0.0
173
     0
291
     0
 45
0.0
1001
ACAD
1000
AcDbSavedByObjectVersion
1070
     0
  0
VISUALSTYLE
  5
31
102
{ACAD_REACTORS
330
2A
102
}
102
{ACAD_XDICTIONARY
360
B4
102
}
330
2A
100
AcDbVisualStyle
  2
3D Hidden
 70
     6
 71
     1
 72
     2
 73
     2
 90
        0
 40
-0.6
 41
-30.0
 62
     5
 63
     7
421
 16777215
 74
     2
 91
        2
 64
     7
 65
   257
 75
     2
175
     1
 42
40.0
 92
        0
 66
   257
 43
1.0
 76
     1
 77
     6
 78
     2
 67
     7
 79
     3
170
     0
171
     0
290
     0
174
     0
 93
        1
 44
0.0
173
     0
291
     0
 45
0.0
1001
ACAD
1000
AcDbSavedByObjectVersion
1070
     0
  0
VISUALSTYLE
  5
30
102
{ACAD_REACTORS
330
2A
102
}
102
{ACAD_XDICTIONARY
360
B2
102
}
330
2A
100
AcDbVisualStyle
  2
3dWireframe
 70
     5
 71
     0
 72
     2
 73
     0
 90
        0
 40
-0.6
 41
-30.0
 62
     5
 63
     7
421
 16777215
 74
     1
 91
        4
 64
     7
 65
   257
 75
     1
175
     1
 42
1.0
 92
        0
 66
   257
 43
1.0
 76
     1
 77
     6
 78
     2
 67
     7
 79
     5
170
     0
171
     0
290
     0
174
     0
 93
        1
 44
0.0
173
     0
291
     0
 45
0.0
1001
ACAD
1000
AcDbSavedByObjectVersion
1070
     0
  0
VISUALSTYLE
  5
32
102
{ACAD_REACTORS
330
2A
102
}
102
{ACAD_XDICTIONARY
360
B6
102
}
330
2A
100
AcDbVisualStyle
  2
Basic
 70
     7
 71
     1
 72
     0
 73
     1
 90
        0
 40
-0.6
 41
-30.0
 62
     5
 63
     7
421
 16777215
 74
     0
 91
        4
 64
     7
 65
   257
 75
     1
175
     1
 42
1.0
 92
        8
 66
     7
 43
1.0
 76
     1
 77
     6
 78
     2
 67
     7
 79
     5
170
     0
171
     0
290
     0
174
     0
 93
        1
 44
0.0
173
     0
291
     1
 45
0.0
1001
ACAD
1000
AcDbSavedByObjectVersion
1070
     0
  0
VISUALSTYLE
  5
36
102
{ACAD_REACTORS
330
2A
102
}
102
{ACAD_XDICTIONARY
360
BE
102
}
330
2A
100
AcDbVisualStyle
  2
Brighten
 70
    12
 71
     2
 72
     2
 73
     0
 90
        0
 40
-0.6
 41
-30.0
 62
     5
 63
     7
421
 16777215
 74
     1
 91
        4
 64
     7
 65
   257
 75
     1
175
     1
 42
1.0
 92
        8
 66
     7
 43
1.0
 76
     1
 77
     6
 78
     2
 67
     7
 79
     5
170
     0
171
     0
290
     0
174
     0
 93
        1
 44
50.0
173
     0
291
     1
 45
0.0
1001
ACAD
1000
AcDbSavedByObjectVersion
1070
     0
  0
VISUALSTYLE
  5
3A
102
{ACAD_REACTORS
330
2A
102
}
102
{ACAD_XDICTIONARY
360
C6
102
}
330
2A
100
AcDbVisualStyle
  2
ColorChange
 70
    16
 71
     2
 72
     2
 73
     3
 90
        0
 40
-0.6
 41
-30.0
 62
     5
 63
     8
421
  8421504
 74
     1
 91
        4
 64
     7
 65
   257
 75
     1
175
     1
 42
1.0
 92
        8
 66
     8
424
  8421504
 43
1.0
 76
     1
 77
     6
 78
     2
 67
     7
 79
     5
170
     0
171
     0
290
     0
174
     0
 93
        1
 44
0.0
173
     0
291
     1
 45
0.0
1001
ACAD
1000
AcDbSavedByObjectVersion
1070
     0
  0
VISUALSTYLE
  5
34
102
{ACAD_REACTORS
330
2A
102
}
102
{ACAD_XDICTIONARY
360
BA
102
}
330
2A
100
AcDbVisualStyle
  2
Conceptual
 70
     9
 71
     3
 72
     2
 73
     0
 90
        0
 40
-0.6
 41
-30.0
 62
     5
 63
     7
421
 16777215
 74
     2
 91
        2
 64
     7
 65
   257
 75
     1
175
     1
 42
40.0
 92
        8
 66
     7
 43
1.0
 76
     1
 77
     6
 78
     2
 67
     7
 79
     3
170
     0
171
     0
290
     0
174
     0
 93
        1
 44
0.0
173
     0
291
     0
 45
0.0
1001
ACAD
1000
AcDbSavedByObjectVersion
1070
     0
  0
VISUALSTYLE
  5
35
102
{ACAD_REACTORS
330
2A
102
}
102
{ACAD_XDICTIONARY
360
BC
102
}
330
2A
100
AcDbVisualStyle
  2
Dim
 70
    11
 71
     2
 72
     2
 73
     0
 90
        0
 40
-0.6
 41
-30.0
 62
     5
 63
     7
421
 16777215
 74
     1
 91
        4
 64
     7
 65
   257
 75
     1
175
     1
 42
1.0
 92
        8
 66
     7
 43
1.0
 76
     1
 77
     6
 78
     2
 67
     7
 79
     5
170
     0
171
     0
290
     0
174
     0
 93
        1
 44
-50.0
173
     0
291
     1
 45
0.0
1001
ACAD
1000
AcDbSavedByObjectVersion
1070
     0
  0
VISUALSTYLE
  5
39
102
{ACAD_REACTORS
330
2A
102
}
102
{ACAD_XDICTIONARY
360
C4
102
}
330
2A
100
AcDbVisualStyle
  2
Facepattern
 70
    15
 71
     2
 72
     2
 73
     0
 90
        0
 40
-0.6
 41
-30.0
 62
     5
 63
     7
421
 16777215
 74
     1
 91
        4
 64
     7
 65
   257
 75
     1
175
     1
 42
1.0
 92
        8
 66
     7
 43
1.0
 76
     1
 77
     6
 78
     2
 67
     7
 79
     5
170
     0
171
     0
290
     0
174
     0
 93
        1
 44
0.0
173
     0
291
     1
 45
0.0
1001
ACAD
1000
AcDbSavedByObjectVersion
1070
     0
  0
VISUALSTYLE
  5
2B
102
{ACAD_REACTORS
330
2A
102
}
102
{ACAD_XDICTIONARY
360
A8
102
}
330
2A
100
AcDbVisualStyle
  2
Flat
 70
     0
 71
     2
 72
     1
 73
     1
 90
        2
 40
-0.6
 41
30.0
 62
     5
 63
     7
421
 16777215
 74
     0
 91
        4
 64
     7
 65
   257
 75
     1
175
     1
 42
1.0
 92
        8
 66
     7
 43
1.0
 76
     1
 77
     6
 78
     2
 67
     7
 79
     5
170
     0
171
     0
290
     0
174
     0
 93
       13
 44
0.0
173
     0
291
     1
 45
0.0
1001
ACAD
1000
AcDbSavedByObjectVersion
1070
     0
  0
VISUALSTYLE
  5
2C
102
{ACAD_REACTORS
330
2A
102
}
102
{ACAD_XDICTIONARY
360
AA
102
}
330
2A
100
AcDbVisualStyle
  2
FlatWithEdges
 70
     1
 71
     2
 72
     1
 73
     1
 90
        2
 40
-0.6
 41
30.0
 62
     5
 63
     7
421
 16777215
 74
     1
 91
        4
 64
     7
 65
   257
 75
     1
175
     1
 42
1.0
 92
        0
 66
   257
 43
1.0
 76
     1
 77
     6
 78
     2
 67
     7
 79
     5
170
     0
171
     0
290
     0
174
     0
 93
       13
 44
0.0
173
     0
291
     1
 45
0.0
1001
ACAD
1000
AcDbSavedByObjectVersion
1070
     0
  0
VISUALSTYLE
  5
2D
102
{ACAD_REACTORS
330
2A
102
}
102
{ACAD_XDICTIONARY
360
AC
102
}
330
2A
100
AcDbVisualStyle
  2
Gouraud
 70
     2
 71
     2
 72
     2
 73
     1
 90
        2
 40
-0.6
 41
30.0
 62
     5
 63
     7
421
 16777215
 74
     0
 91
        4
 64
     7
 65
   257
 75
     1
175
     1
 42
1.0
 92
        0
 66
     7
 43
1.0
 76
     1
 77
     6
 78
     2
 67
     7
 79
     5
170
     0
171
     0
290
     0
174
     0
 93
       13
 44
0.0
173
     0
291
     1
 45
0.0
1001
ACAD
1000
AcDbSavedByObjectVersion
1070
     0
  0
VISUALSTYLE
  5
2E
102
{ACAD_REACTORS
330
2A
102
}
102
{ACAD_XDICTIONARY
360
AE
102
}
330
2A
100
AcDbVisualStyle
  2
GouraudWithEdges
 70
     3
 71
     2
 72
     2
 73
     1
 90
        2
 40
-0.6
 41
30.0
 62
     5
 63
     7
421
 16777215
 74
     1
 91
        4
 64
     7
 65
   257
 75
     1
175
     1
 42
1.0
 92
        0
 66
   257
 43
1.0
 76
     1
 77
     6
 78
     2
 67
     7
 79
     5
170
     0
171
     0
290
     0
174
     0
 93
       13
 44
0.0
173
     0
291
     1
 45
0.0
1001
ACAD
1000
AcDbSavedByObjectVersion
1070
     0
  0
VISUALSTYLE
  5
38
102
{ACAD_REACTORS
330
2A
102
}
102
{ACAD_XDICTIONARY
360
C2
102
}
330
2A
100
AcDbVisualStyle
  2
Linepattern
 70
    14
 71
     2
 72
     2
 73
     0
 90
        0
 40
-0.6
 41
-30.0
 62
     5
 63
     7
421
 16777215
 74
     1
 91
        4
 64
     7
 65
   257
 75
     7
175
     7
 42
1.0
 92
        8
 66
     7
 43
1.0
 76
     1
 77
     6
 78
     2
 67
     7
 79
     5
170
     0
171
     0
290
     0
174
     0
 93
        1
 44
0.0
173
     0
291
     1
 45
0.0
1001
ACAD
1000
AcDbSavedByObjectVersion
1070
     0
  0
VISUALSTYLE
  5
33
102
{ACAD_REACTORS
330
2A
102
}
102
{ACAD_XDICTIONARY
360
B8
102
}
330
2A
100
AcDbVisualStyle
  2
Realistic
 70
     8
 71
     2
 72
     2
 73
     0
 90
        0
 40
-0.6
 41
-30.0
 62
     5
 63
     7
421
 16777215
 74
     1
 91
        0
 64
     7
 65
   257
 75
     1
175
     1
 42
1.0
 92
        8
 66
     8
424
  7895160
 43
1.0
 76
     1
 77
     6
 78
     2
 67
     7
 79
     5
170
     0
171
     0
290
     0
174
     0
 93
       13
 44
0.0
173
     0
291
     0
 45
0.0
1001
ACAD
1000
AcDbSavedByObjectVersion
1070
     0
  0
VISUALSTYLE
  5
37
102
{ACAD_REACTORS
330
2A
102
}
102
{ACAD_XDICTIONARY
360
C0
102
}
330
2A
100
AcDbVisualStyle
  2
Thicken
 70
    13
 71
     2
 72
     2
 73
     0
 90
        0
 40
-0.6
 41
-30.0
 62
     5
 63
     7
421
 16777215
 74
     1
 91
        4
 64
     7
 65
   257
 75
     1
175
     1
 42
1.0
 92
       12
 66
     7
 43
1.0
 76
     1
 77
     6
 78
     2
 67
     7
 79
     5
170
     0
171
     0
290
     0
174
     0
 93
        1
 44
0.0
173
     0
291
     1
 45
0.0
1001
ACAD
1000
AcDbSavedByObjectVersion
1070
     0
  0
DICTIONARY
  5
CA
330
3D
100
AcDbDictionary
280
     1
281
     1
  3
ACAD_XREC_ROUNDTRIP
360
CB
  0
DICTIONARY
  5
C8
330
3C
100
AcDbDictionary
280
     1
281
     1
  3
ACAD_XREC_ROUNDTRIP
360
C9
  0
DICTIONARY
  5
CC
330
3E
100
AcDbDictionary
280
     1
281
     1
  3
ACAD_XREC_ROUNDTRIP
360
CD
  0
DICTIONARY
  5
B0
330
2F
100
AcDbDictionary
280
     1
281
     1
  3
ACAD_XREC_ROUNDTRIP
360
B1
  0
DICTIONARY
  5
B4
330
31
100
AcDbDictionary
280
     1
281
     1
  3
ACAD_XREC_ROUNDTRIP
360
B5
  0
DICTIONARY
  5
B2
330
30
100
AcDbDictionary
280
     1
281
     1
  3
ACAD_XREC_ROUNDTRIP
360
B3
  0
DICTIONARY
  5
B6
330
32
100
AcDbDictionary
280
     1
281
     1
  3
ACAD_XREC_ROUNDTRIP
360
B7
  0
DICTIONARY
  5
BE
330
36
100
AcDbDictionary
280
     1
281
     1
  3
ACAD_XREC_ROUNDTRIP
360
BF
  0
DICTIONARY
  5
C6
330
3A
100
AcDbDictionary
280
     1
281
     1
  3
ACAD_XREC_ROUNDTRIP
360
C7
  0
DICTIONARY
  5
BA
330
34
100
AcDbDictionary
280
     1
281
     1
  3
ACAD_XREC_ROUNDTRIP
360
BB
  0
DICTIONARY
  5
BC
330
35
100
AcDbDictionary
280
     1
281
     1
  3
ACAD_XREC_ROUNDTRIP
360
BD
  0
DICTIONARY
  5
C4
330
39
100
AcDbDictionary
280
     1
281
     1
  3
ACAD_XREC_ROUNDTRIP
360
C5
  0
DICTIONARY
  5
A8
330
2B
100
AcDbDictionary
280
     1
281
     1
  3
ACAD_XREC_ROUNDTRIP
360
A9
  0
DICTIONARY
  5
AA
330
2C
100
AcDbDictionary
280
     1
281
     1
  3
ACAD_XREC_ROUNDTRIP
360
AB
  0
DICTIONARY
  5
AC
330
2D
100
AcDbDictionary
280
     1
281
     1
  3
ACAD_XREC_ROUNDTRIP
360
AD
  0
DICTIONARY
  5
AE
330
2E
100
AcDbDictionary
280
     1
281
     1
  3
ACAD_XREC_ROUNDTRIP
360
AF
  0
DICTIONARY
  5
C2
330
38
100
AcDbDictionary
280
     1
281
     1
  3
ACAD_XREC_ROUNDTRIP
360
C3
  0
DICTIONARY
  5
B8
330
33
100
AcDbDictionary
280
     1
281
     1
  3
ACAD_XREC_ROUNDTRIP
360
B9
  0
DICTIONARY
  5
C0
330
37
100
AcDbDictionary
280
     1
281
     1
  3
ACAD_XREC_ROUNDTRIP
360
C1
  0
XRECORD
  5
CB
102
{ACAD_REACTORS
330
CA
102
}
330
CA
100
AcDbXrecord
280
     1
102
MATERIAL
148
0.0
149
0.0
149
0.0
 93
        0
 94
      127
282
     0
 72
     1
 77
     1
171
     1
175
     1
179
     1
273
     0
  0
XRECORD
  5
C9
102
{ACAD_REACTORS
330
C8
102
}
330
C8
100
AcDbXrecord
280
     1
102
MATERIAL
148
0.0
149
0.0
149
0.0
 93
        0
 94
      127
282
     0
 72
     1
 77
     1
171
     1
175
     1
179
     1
273
     0
  0
XRECORD
  5
CD
102
{ACAD_REACTORS
330
CC
102
}
330
CC
100
AcDbXrecord
280
     1
102
MATERIAL
148
0.0
149
0.0
149
0.0
 93
        0
 94
      127
282
     0
 72
     1
 77
     1
171
     1
175
     1
179
     1
273
     0
  0
XRECORD
  5
B1
102
{ACAD_REACTORS
330
B0
102
}
330
B0
100
AcDbXrecord
280
     1
102
RTVSPropertyOp0
 70
     1
102
RTVSPropertyOp1
 70
     1
102
RTVSPropertyOp2
 70
     1
102
RTVSPropertyOp3
 70
     1
102
RTVSPropertyOp4
 70
     1
102
RTVSPropertyOp5
 70
     1
102
RTVSPropertyOp6
 70
     1
102
RTVSPropertyOp7
 70
     1
102
RTVSPropertyOp8
 70
     1
102
RTVSPropertyOp9
 70
     1
102
RTVSPropertyOp10
 70
     1
102
RTVSPropertyOp11
 70
     1
102
RTVSPropertyOp12
 70
     1
102
RTVSPropertyOp13
 70
     1
102
RTVSPropertyOp14
 70
     1
102
RTVSPropertyOp15
 70
     1
102
RTVSPropertyOp16
 70
     1
102
RTVSPropertyOp17
 70
     1
102
RTVSPropertyOp18
 70
     1
102
RTVSPropertyOp19
 70
     1
102
RTVSPropertyOp20
 70
     1
102
RTVSPropertyOp21
 70
     1
102
RTVSPropertyOp22
 70
     1
102
RTVSPropertyOp23
 70
     1
102
RTVSPropertyOp24
 70
     1
102
RTVSPropertyOp25
 70
     1
102
RTVSPropertyOp26
 70
     1
102
RTVSPropertyOp27
 70
     1
102
RTVSPropertyOp28
 70
     1
102
RTVSPropertyOp29
 70
     1
102
RTVSPropertyOp30
 70
     1
102
RTVSPropertyOp31
 70
     1
102
RTVSPropertyOp32
 70
     1
  0
XRECORD
  5
B5
102
{ACAD_REACTORS
330
B4
102
}
330
B4
100
AcDbXrecord
280
     1
102
RTVSPropertyOp0
 70
     1
102
RTVSPropertyOp1
 70
     1
102
RTVSPropertyOp2
 70
     1
102
RTVSPropertyOp3
 70
     1
102
RTVSPropertyOp4
 70
     1
102
RTVSPropertyOp5
 70
     1
102
RTVSPropertyOp6
 70
     1
102
RTVSPropertyOp7
 70
     1
102
RTVSPropertyOp8
 70
     1
102
RTVSPropertyOp9
 70
     1
102
RTVSPropertyOp10
 70
     1
102
RTVSPropertyOp11
 70
     1
102
RTVSPropertyOp12
 70
     1
102
RTVSPropertyOp13
 70
     1
102
RTVSPropertyOp14
 70
     1
102
RTVSPropertyOp15
 70
     1
102
RTVSPropertyOp16
 70
     1
102
RTVSPropertyOp17
 70
     1
102
RTVSPropertyOp18
 70
     1
102
RTVSPropertyOp19
 70
     1
102
RTVSPropertyOp20
 70
     1
102
RTVSPropertyOp21
 70
     1
102
RTVSPropertyOp22
 70
     1
102
RTVSPropertyOp23
 70
     1
102
RTVSPropertyOp24
 70
     1
102
RTVSPropertyOp25
 70
     1
102
RTVSPropertyOp26
 70
     1
102
RTVSPropertyOp27
 70
     1
102
RTVSPropertyOp28
 70
     1
102
RTVSPropertyOp29
 70
     1
102
RTVSPropertyOp30
 70
     1
102
RTVSPropertyOp31
 70
     1
102
RTVSPropertyOp32
 70
     1
  0
XRECORD
  5
B3
102
{ACAD_REACTORS
330
B2
102
}
330
B2
100
AcDbXrecord
280
     1
102
RTVSPropertyOp0
 70
     1
102
RTVSPropertyOp1
 70
     1
102
RTVSPropertyOp2
 70
     1
102
RTVSPropertyOp3
 70
     1
102
RTVSPropertyOp4
 70
     1
102
RTVSPropertyOp5
 70
     1
102
RTVSPropertyOp6
 70
     1
102
RTVSPropertyOp7
 70
     1
102
RTVSPropertyOp8
 70
     1
102
RTVSPropertyOp9
 70
     1
102
RTVSPropertyOp10
 70
     1
102
RTVSPropertyOp11
 70
     1
102
RTVSPropertyOp12
 70
     1
102
RTVSPropertyOp13
 70
     1
102
RTVSPropertyOp14
 70
     1
102
RTVSPropertyOp15
 70
     1
102
RTVSPropertyOp16
 70
     1
102
RTVSPropertyOp17
 70
     1
102
RTVSPropertyOp18
 70
     1
102
RTVSPropertyOp19
 70
     1
102
RTVSPropertyOp20
 70
     1
102
RTVSPropertyOp21
 70
     1
102
RTVSPropertyOp22
 70
     1
102
RTVSPropertyOp23
 70
     1
102
RTVSPropertyOp24
 70
     1
102
RTVSPropertyOp25
 70
     1
102
RTVSPropertyOp26
 70
     1
102
RTVSPropertyOp27
 70
     1
102
RTVSPropertyOp28
 70
     1
102
RTVSPropertyOp29
 70
     1
102
RTVSPropertyOp30
 70
     1
102
RTVSPropertyOp31
 70
     1
102
RTVSPropertyOp32
 70
     1
  0
XRECORD
  5
B7
102
{ACAD_REACTORS
330
B6
102
}
330
B6
100
AcDbXrecord
280
     1
102
RTVSPropertyOp0
 70
     1
102
RTVSPropertyOp1
 70
     1
102
RTVSPropertyOp2
 70
     1
102
RTVSPropertyOp3
 70
     1
102
RTVSPropertyOp4
 70
     1
102
RTVSPropertyOp5
 70
     1
102
RTVSPropertyOp6
 70
     1
102
RTVSPropertyOp7
 70
     1
102
RTVSPropertyOp8
 70
     1
102
RTVSPropertyOp9
 70
     1
102
RTVSPropertyOp10
 70
     1
102
RTVSPropertyOp11
 70
     1
102
RTVSPropertyOp12
 70
     1
102
RTVSPropertyOp13
 70
     1
102
RTVSPropertyOp14
 70
     1
102
RTVSPropertyOp15
 70
     1
102
RTVSPropertyOp16
 70
     1
102
RTVSPropertyOp17
 70
     1
102
RTVSPropertyOp18
 70
     1
102
RTVSPropertyOp19
 70
     1
102
RTVSPropertyOp20
 70
     1
102
RTVSPropertyOp21
 70
     1
102
RTVSPropertyOp22
 70
     1
102
RTVSPropertyOp23
 70
     1
102
RTVSPropertyOp24
 70
     1
102
RTVSPropertyOp25
 70
     1
102
RTVSPropertyOp26
 70
     1
102
RTVSPropertyOp27
 70
     1
102
RTVSPropertyOp28
 70
     1
102
RTVSPropertyOp29
 70
     1
102
RTVSPropertyOp30
 70
     1
102
RTVSPropertyOp31
 70
     1
102
RTVSPropertyOp32
 70
     1
  0
XRECORD
  5
BF
102
{ACAD_REACTORS
330
BE
102
}
330
BE
100
AcDbXrecord
280
     1
102
RTVSPropertyOp0
 70
     1
102
RTVSPropertyOp1
 70
     1
102
RTVSPropertyOp2
 70
     1
102
RTVSPropertyOp3
 70
     1
102
RTVSPropertyOp4
 70
     1
102
RTVSPropertyOp5
 70
     1
102
RTVSPropertyOp6
 70
     1
102
RTVSPropertyOp7
 70
     1
102
RTVSPropertyOp8
 70
     1
102
RTVSPropertyOp9
 70
     1
102
RTVSPropertyOp10
 70
     1
102
RTVSPropertyOp11
 70
     1
102
RTVSPropertyOp12
 70
     1
102
RTVSPropertyOp13
 70
     1
102
RTVSPropertyOp14
 70
     1
102
RTVSPropertyOp15
 70
     1
102
RTVSPropertyOp16
 70
     1
102
RTVSPropertyOp17
 70
     1
102
RTVSPropertyOp18
 70
     1
102
RTVSPropertyOp19
 70
     1
102
RTVSPropertyOp20
 70
     1
102
RTVSPropertyOp21
 70
     1
102
RTVSPropertyOp22
 70
     1
102
RTVSPropertyOp23
 70
     1
102
RTVSPropertyOp24
 70
     1
102
RTVSPropertyOp25
 70
     1
102
RTVSPropertyOp26
 70
     1
102
RTVSPropertyOp27
 70
     1
102
RTVSPropertyOp28
 70
     1
102
RTVSPropertyOp29
 70
     1
102
RTVSPropertyOp30
 70
     1
102
RTVSPropertyOp31
 70
     1
102
RTVSPropertyOp32
 70
     1
  0
XRECORD
  5
C7
102
{ACAD_REACTORS
330
C6
102
}
330
C6
100
AcDbXrecord
280
     1
102
RTVSPropertyOp0
 70
     1
102
RTVSPropertyOp1
 70
     1
102
RTVSPropertyOp2
 70
     1
102
RTVSPropertyOp3
 70
     1
102
RTVSPropertyOp4
 70
     1
102
RTVSPropertyOp5
 70
     1
102
RTVSPropertyOp6
 70
     1
102
RTVSPropertyOp7
 70
     1
102
RTVSPropertyOp8
 70
     1
102
RTVSPropertyOp9
 70
     1
102
RTVSPropertyOp10
 70
     1
102
RTVSPropertyOp11
 70
     1
102
RTVSPropertyOp12
 70
     1
102
RTVSPropertyOp13
 70
     1
102
RTVSPropertyOp14
 70
     1
102
RTVSPropertyOp15
 70
     1
102
RTVSPropertyOp16
 70
     1
102
RTVSPropertyOp17
 70
     1
102
RTVSPropertyOp18
 70
     1
102
RTVSPropertyOp19
 70
     1
102
RTVSPropertyOp20
 70
     1
102
RTVSPropertyOp21
 70
     1
102
RTVSPropertyOp22
 70
     1
102
RTVSPropertyOp23
 70
     1
102
RTVSPropertyOp24
 70
     1
102
RTVSPropertyOp25
 70
     1
102
RTVSPropertyOp26
 70
     1
102
RTVSPropertyOp27
 70
     1
102
RTVSPropertyOp28
 70
     1
102
RTVSPropertyOp29
 70
     1
102
RTVSPropertyOp30
 70
     1
102
RTVSPropertyOp31
 70
     1
102
RTVSPropertyOp32
 70
     1
  0
XRECORD
  5
BB
102
{ACAD_REACTORS
330
BA
102
}
330
BA
100
AcDbXrecord
280
     1
102
RTVSPropertyOp0
 70
     1
102
RTVSPropertyOp1
 70
     1
102
RTVSPropertyOp2
 70
     1
102
RTVSPropertyOp3
 70
     1
102
RTVSPropertyOp4
 70
     1
102
RTVSPropertyOp5
 70
     1
102
RTVSPropertyOp6
 70
     1
102
RTVSPropertyOp7
 70
     1
102
RTVSPropertyOp8
 70
     1
102
RTVSPropertyOp9
 70
     1
102
RTVSPropertyOp10
 70
     1
102
RTVSPropertyOp11
 70
     1
102
RTVSPropertyOp12
 70
     1
102
RTVSPropertyOp13
 70
     1
102
RTVSPropertyOp14
 70
     1
102
RTVSPropertyOp15
 70
     1
102
RTVSPropertyOp16
 70
     1
102
RTVSPropertyOp17
 70
     1
102
RTVSPropertyOp18
 70
     1
102
RTVSPropertyOp19
 70
     1
102
RTVSPropertyOp20
 70
     1
102
RTVSPropertyOp21
 70
     1
102
RTVSPropertyOp22
 70
     1
102
RTVSPropertyOp23
 70
     1
102
RTVSPropertyOp24
 70
     1
102
RTVSPropertyOp25
 70
     1
102
RTVSPropertyOp26
 70
     1
102
RTVSPropertyOp27
 70
     1
102
RTVSPropertyOp28
 70
     1
102
RTVSPropertyOp29
 70
     1
102
RTVSPropertyOp30
 70
     1
102
RTVSPropertyOp31
 70
     1
102
RTVSPropertyOp32
 70
     1
  0
XRECORD
  5
BD
102
{ACAD_REACTORS
330
BC
102
}
330
BC
100
AcDbXrecord
280
     1
102
RTVSPropertyOp0
 70
     1
102
RTVSPropertyOp1
 70
     1
102
RTVSPropertyOp2
 70
     1
102
RTVSPropertyOp3
 70
     1
102
RTVSPropertyOp4
 70
     1
102
RTVSPropertyOp5
 70
     1
102
RTVSPropertyOp6
 70
     1
102
RTVSPropertyOp7
 70
     1
102
RTVSPropertyOp8
 70
     1
102
RTVSPropertyOp9
 70
     1
102
RTVSPropertyOp10
 70
     1
102
RTVSPropertyOp11
 70
     1
102
RTVSPropertyOp12
 70
     1
102
RTVSPropertyOp13
 70
     1
102
RTVSPropertyOp14
 70
     1
102
RTVSPropertyOp15
 70
     1
102
RTVSPropertyOp16
 70
     1
102
RTVSPropertyOp17
 70
     1
102
RTVSPropertyOp18
 70
     1
102
RTVSPropertyOp19
 70
     1
102
RTVSPropertyOp20
 70
     1
102
RTVSPropertyOp21
 70
     1
102
RTVSPropertyOp22
 70
     1
102
RTVSPropertyOp23
 70
     1
102
RTVSPropertyOp24
 70
     1
102
RTVSPropertyOp25
 70
     1
102
RTVSPropertyOp26
 70
     1
102
RTVSPropertyOp27
 70
     1
102
RTVSPropertyOp28
 70
     1
102
RTVSPropertyOp29
 70
     1
102
RTVSPropertyOp30
 70
     1
102
RTVSPropertyOp31
 70
     1
102
RTVSPropertyOp32
 70
     1
  0
XRECORD
  5
C5
102
{ACAD_REACTORS
330
C4
102
}
330
C4
100
AcDbXrecord
280
     1
102
RTVSPropertyOp0
 70
     1
102
RTVSPropertyOp1
 70
     1
102
RTVSPropertyOp2
 70
     1
102
RTVSPropertyOp3
 70
     1
102
RTVSPropertyOp4
 70
     1
102
RTVSPropertyOp5
 70
     1
102
RTVSPropertyOp6
 70
     1
102
RTVSPropertyOp7
 70
     1
102
RTVSPropertyOp8
 70
     1
102
RTVSPropertyOp9
 70
     1
102
RTVSPropertyOp10
 70
     1
102
RTVSPropertyOp11
 70
     1
102
RTVSPropertyOp12
 70
     1
102
RTVSPropertyOp13
 70
     1
102
RTVSPropertyOp14
 70
     1
102
RTVSPropertyOp15
 70
     1
102
RTVSPropertyOp16
 70
     1
102
RTVSPropertyOp17
 70
     1
102
RTVSPropertyOp18
 70
     1
102
RTVSPropertyOp19
 70
     1
102
RTVSPropertyOp20
 70
     1
102
RTVSPropertyOp21
 70
     1
102
RTVSPropertyOp22
 70
     1
102
RTVSPropertyOp23
 70
     1
102
RTVSPropertyOp24
 70
     1
102
RTVSPropertyOp25
 70
     1
102
RTVSPropertyOp26
 70
     1
102
RTVSPropertyOp27
 70
     1
102
RTVSPropertyOp28
 70
     1
102
RTVSPropertyOp29
 70
     1
102
RTVSPropertyOp30
 70
     1
102
RTVSPropertyOp31
 70
     1
102
RTVSPropertyOp32
 70
     1
  0
XRECORD
  5
A9
102
{ACAD_REACTORS
330
A8
102
}
330
A8
100
AcDbXrecord
280
     1
102
RTVSPropertyOp0
 70
     1
102
RTVSPropertyOp1
 70
     1
102
RTVSPropertyOp2
 70
     1
102
RTVSPropertyOp3
 70
     1
102
RTVSPropertyOp4
 70
     1
102
RTVSPropertyOp5
 70
     1
102
RTVSPropertyOp6
 70
     1
102
RTVSPropertyOp7
 70
     1
102
RTVSPropertyOp8
 70
     1
102
RTVSPropertyOp9
 70
     1
102
RTVSPropertyOp10
 70
     1
102
RTVSPropertyOp11
 70
     1
102
RTVSPropertyOp12
 70
     1
102
RTVSPropertyOp13
 70
     1
102
RTVSPropertyOp14
 70
     1
102
RTVSPropertyOp15
 70
     1
102
RTVSPropertyOp16
 70
     1
102
RTVSPropertyOp17
 70
     1
102
RTVSPropertyOp18
 70
     1
102
RTVSPropertyOp19
 70
     1
102
RTVSPropertyOp20
 70
     1
102
RTVSPropertyOp21
 70
     1
102
RTVSPropertyOp22
 70
     1
102
RTVSPropertyOp23
 70
     1
102
RTVSPropertyOp24
 70
     1
102
RTVSPropertyOp25
 70
     1
102
RTVSPropertyOp26
 70
     1
102
RTVSPropertyOp27
 70
     1
102
RTVSPropertyOp28
 70
     1
102
RTVSPropertyOp29
 70
     1
102
RTVSPropertyOp30
 70
     1
102
RTVSPropertyOp31
 70
     1
102
RTVSPropertyOp32
 70
     1
  0
XRECORD
  5
AB
102
{ACAD_REACTORS
330
AA
102
}
330
AA
100
AcDbXrecord
280
     1
102
RTVSPropertyOp0
 70
     1
102
RTVSPropertyOp1
 70
     1
102
RTVSPropertyOp2
 70
     1
102
RTVSPropertyOp3
 70
     1
102
RTVSPropertyOp4
 70
     1
102
RTVSPropertyOp5
 70
     1
102
RTVSPropertyOp6
 70
     1
102
RTVSPropertyOp7
 70
     1
102
RTVSPropertyOp8
 70
     1
102
RTVSPropertyOp9
 70
     1
102
RTVSPropertyOp10
 70
     1
102
RTVSPropertyOp11
 70
     1
102
RTVSPropertyOp12
 70
     1
102
RTVSPropertyOp13
 70
     1
102
RTVSPropertyOp14
 70
     1
102
RTVSPropertyOp15
 70
     1
102
RTVSPropertyOp16
 70
     1
102
RTVSPropertyOp17
 70
     1
102
RTVSPropertyOp18
 70
     1
102
RTVSPropertyOp19
 70
     1
102
RTVSPropertyOp20
 70
     1
102
RTVSPropertyOp21
 70
     1
102
RTVSPropertyOp22
 70
     1
102
RTVSPropertyOp23
 70
     1
102
RTVSPropertyOp24
 70
     1
102
RTVSPropertyOp25
 70
     1
102
RTVSPropertyOp26
 70
     1
102
RTVSPropertyOp27
 70
     1
102
RTVSPropertyOp28
 70
     1
102
RTVSPropertyOp29
 70
     1
102
RTVSPropertyOp30
 70
     1
102
RTVSPropertyOp31
 70
     1
102
RTVSPropertyOp32
 70
     1
  0
XRECORD
  5
AD
102
{ACAD_REACTORS
330
AC
102
}
330
AC
100
AcDbXrecord
280
     1
102
RTVSPropertyOp0
 70
     1
102
RTVSPropertyOp1
 70
     1
102
RTVSPropertyOp2
 70
     1
102
RTVSPropertyOp3
 70
     1
102
RTVSPropertyOp4
 70
     1
102
RTVSPropertyOp5
 70
     1
102
RTVSPropertyOp6
 70
     1
102
RTVSPropertyOp7
 70
     1
102
RTVSPropertyOp8
 70
     1
102
RTVSPropertyOp9
 70
     1
102
RTVSPropertyOp10
 70
     1
102
RTVSPropertyOp11
 70
     1
102
RTVSPropertyOp12
 70
     1
102
RTVSPropertyOp13
 70
     1
102
RTVSPropertyOp14
 70
     1
102
RTVSPropertyOp15
 70
     1
102
RTVSPropertyOp16
 70
     1
102
RTVSPropertyOp17
 70
     1
102
RTVSPropertyOp18
 70
     1
102
RTVSPropertyOp19
 70
     1
102
RTVSPropertyOp20
 70
     1
102
RTVSPropertyOp21
 70
     1
102
RTVSPropertyOp22
 70
     1
102
RTVSPropertyOp23
 70
     1
102
RTVSPropertyOp24
 70
     1
102
RTVSPropertyOp25
 70
     1
102
RTVSPropertyOp26
 70
     1
102
RTVSPropertyOp27
 70
     1
102
RTVSPropertyOp28
 70
     1
102
RTVSPropertyOp29
 70
     1
102
RTVSPropertyOp30
 70
     1
102
RTVSPropertyOp31
 70
     1
102
RTVSPropertyOp32
 70
     1
  0
XRECORD
  5
AF
102
{ACAD_REACTORS
330
AE
102
}
330
AE
100
AcDbXrecord
280
     1
102
RTVSPropertyOp0
 70
     1
102
RTVSPropertyOp1
 70
     1
102
RTVSPropertyOp2
 70
     1
102
RTVSPropertyOp3
 70
     1
102
RTVSPropertyOp4
 70
     1
102
RTVSPropertyOp5
 70
     1
102
RTVSPropertyOp6
 70
     1
102
RTVSPropertyOp7
 70
     1
102
RTVSPropertyOp8
 70
     1
102
RTVSPropertyOp9
 70
     1
102
RTVSPropertyOp10
 70
     1
102
RTVSPropertyOp11
 70
     1
102
RTVSPropertyOp12
 70
     1
102
RTVSPropertyOp13
 70
     1
102
RTVSPropertyOp14
 70
     1
102
RTVSPropertyOp15
 70
     1
102
RTVSPropertyOp16
 70
     1
102
RTVSPropertyOp17
 70
     1
102
RTVSPropertyOp18
 70
     1
102
RTVSPropertyOp19
 70
     1
102
RTVSPropertyOp20
 70
     1
102
RTVSPropertyOp21
 70
     1
102
RTVSPropertyOp22
 70
     1
102
RTVSPropertyOp23
 70
     1
102
RTVSPropertyOp24
 70
     1
102
RTVSPropertyOp25
 70
     1
102
RTVSPropertyOp26
 70
     1
102
RTVSPropertyOp27
 70
     1
102
RTVSPropertyOp28
 70
     1
102
RTVSPropertyOp29
 70
     1
102
RTVSPropertyOp30
 70
     1
102
RTVSPropertyOp31
 70
     1
102
RTVSPropertyOp32
 70
     1
  0
XRECORD
  5
C3
102
{ACAD_REACTORS
330
C2
102
}
330
C2
100
AcDbXrecord
280
     1
102
RTVSPropertyOp0
 70
     1
102
RTVSPropertyOp1
 70
     1
102
RTVSPropertyOp2
 70
     1
102
RTVSPropertyOp3
 70
     1
102
RTVSPropertyOp4
 70
     1
102
RTVSPropertyOp5
 70
     1
102
RTVSPropertyOp6
 70
     1
102
RTVSPropertyOp7
 70
     1
102
RTVSPropertyOp8
 70
     1
102
RTVSPropertyOp9
 70
     1
102
RTVSPropertyOp10
 70
     1
102
RTVSPropertyOp11
 70
     1
102
RTVSPropertyOp12
 70
     1
102
RTVSPropertyOp13
 70
     1
102
RTVSPropertyOp14
 70
     1
102
RTVSPropertyOp15
 70
     1
102
RTVSPropertyOp16
 70
     1
102
RTVSPropertyOp17
 70
     1
102
RTVSPropertyOp18
 70
     1
102
RTVSPropertyOp19
 70
     1
102
RTVSPropertyOp20
 70
     1
102
RTVSPropertyOp21
 70
     1
102
RTVSPropertyOp22
 70
     1
102
RTVSPropertyOp23
 70
     1
102
RTVSPropertyOp24
 70
     1
102
RTVSPropertyOp25
 70
     1
102
RTVSPropertyOp26
 70
     1
102
RTVSPropertyOp27
 70
     1
102
RTVSPropertyOp28
 70
     1
102
RTVSPropertyOp29
 70
     1
102
RTVSPropertyOp30
 70
     1
102
RTVSPropertyOp31
 70
     1
102
RTVSPropertyOp32
 70
     1
  0
XRECORD
  5
B9
102
{ACAD_REACTORS
330
B8
102
}
330
B8
100
AcDbXrecord
280
     1
102
RTVSPropertyOp0
 70
     1
102
RTVSPropertyOp1
 70
     1
102
RTVSPropertyOp2
 70
     1
102
RTVSPropertyOp3
 70
     1
102
RTVSPropertyOp4
 70
     1
102
RTVSPropertyOp5
 70
     1
102
RTVSPropertyOp6
 70
     1
102
RTVSPropertyOp7
 70
     1
102
RTVSPropertyOp8
 70
     1
102
RTVSPropertyOp9
 70
     1
102
RTVSPropertyOp10
 70
     1
102
RTVSPropertyOp11
 70
     1
102
RTVSPropertyOp12
 70
     1
102
RTVSPropertyOp13
 70
     1
102
RTVSPropertyOp14
 70
     1
102
RTVSPropertyOp15
 70
     1
102
RTVSPropertyOp16
 70
     1
102
RTVSPropertyOp17
 70
     1
102
RTVSPropertyOp18
 70
     1
102
RTVSPropertyOp19
 70
     1
102
RTVSPropertyOp20
 70
     1
102
RTVSPropertyOp21
 70
     1
102
RTVSPropertyOp22
 70
     1
102
RTVSPropertyOp23
 70
     1
102
RTVSPropertyOp24
 70
     1
102
RTVSPropertyOp25
 70
     1
102
RTVSPropertyOp26
 70
     1
102
RTVSPropertyOp27
 70
     1
102
RTVSPropertyOp28
 70
     1
102
RTVSPropertyOp29
 70
     1
102
RTVSPropertyOp30
 70
     1
102
RTVSPropertyOp31
 70
     1
102
RTVSPropertyOp32
 70
     1
  0
XRECORD
  5
C1
102
{ACAD_REACTORS
330
C0
102
}
330
C0
100
AcDbXrecord
280
     1
102
RTVSPropertyOp0
 70
     1
102
RTVSPropertyOp1
 70
     1
102
RTVSPropertyOp2
 70
     1
102
RTVSPropertyOp3
 70
     1
102
RTVSPropertyOp4
 70
     1
102
RTVSPropertyOp5
 70
     1
102
RTVSPropertyOp6
 70
     1
102
RTVSPropertyOp7
 70
     1
102
RTVSPropertyOp8
 70
     1
102
RTVSPropertyOp9
 70
     1
102
RTVSPropertyOp10
 70
     1
102
RTVSPropertyOp11
 70
     1
102
RTVSPropertyOp12
 70
     1
102
RTVSPropertyOp13
 70
     1
102
RTVSPropertyOp14
 70
     1
102
RTVSPropertyOp15
 70
     1
102
RTVSPropertyOp16
 70
     1
102
RTVSPropertyOp17
 70
     1
102
RTVSPropertyOp18
 70
     1
102
RTVSPropertyOp19
 70
     1
102
RTVSPropertyOp20
 70
     1
102
RTVSPropertyOp21
 70
     1
102
RTVSPropertyOp22
 70
     1
102
RTVSPropertyOp23
 70
     1
102
RTVSPropertyOp24
 70
     1
102
RTVSPropertyOp25
 70
     1
102
RTVSPropertyOp26
 70
     1
102
RTVSPropertyOp27
 70
     1
102
RTVSPropertyOp28
 70
     1
102
RTVSPropertyOp29
 70
     1
102
RTVSPropertyOp30
 70
     1
102
RTVSPropertyOp31
 70
     1
102
RTVSPropertyOp32
 70
     1
  0
ENDSEC
  0
EOF
